<svg version="1.2" xmlns="http://www.w3.org/2000/svg" viewBox="0 0 800 800" width="800" height="800">
	<style>
		.s0 { fill: #ffffff } 
		.s1 { fill: #fefefe } 
		.s2 { fill: #3f3f3f } 
		.s3 { fill: #fbfdfd } 
		.s4 { opacity: 1;fill: #a6a7a6 } 
		.s5 { fill: #f7fcfc } 
		.s6 { fill: #5f5f60 } 
		.s7 { opacity: 1;fill: #878787 } 
		.s8 { fill: #747474 } 
		.s9 { fill: #bdbdbd } 
		.s10 { fill: #e3dbdb } 
		.s11 { fill: #4a494a } 
		.s12 { fill: #d4c6c5 } 
		.s13 { fill: #979797 } 
		.s14 { fill: #282828 } 
		.s15 { fill: #ec2626 } 
		.s16 { opacity: 1;fill: #ec2929 } 
	</style>
	<g id="Background">
		<path id="Path 0" class="s0" d="m-0.02 364.75l-0.02 364.75c3.62-6.98 7.06-13.5 9.98-19 2.92-5.5 8.88-16.75 13.24-25 4.35-8.25 8.43-15.9 9.05-17 0.62-1.1 3.57-6.73 6.55-12.5 2.98-5.77 8.92-17.48 13.21-26 4.29-8.52 8.59-16.17 9.56-17 1.5-1.28 7.56-1.5 40.91-1.5 33.17 0 39.48 0.23 41.3 1.5 1.19 0.83 7.29 11.63 13.55 24 6.26 12.38 14.85 29.02 19.09 37 4.23 7.98 9.24 17.42 11.14 21 1.89 3.58 7.38 14.26 12.2 23.75l8.76 17.25c0.97-116.79 1.12-121.05 2.79-122.72 1.68-1.67 5.91-1.78 71.5-1.78 63.67 0 70.58 0.16 79.71 1.86 6.64 1.23 12.69 3.15 18 5.7 4.4 2.12 9.57 5.35 11.5 7.18 1.93 1.83 4.97 5.33 6.77 7.79l3.26 4.47c-0.03-20.88 0.3-23.83 1.47-25 0.82-0.83 2.96-1.75 4.75-2.06 1.79-0.31 42.17-0.36 89.75-0.1 47.58 0.25 86.95 0.47 87.5 0.48 0.55 0.01 14.5-0.21 31-0.49 16.5-0.28 33.83-0.2 38.5 0.18l8.5 0.68 32 32.9c19.38-20.6 26.58-28.03 28.5-29.8 3.01-2.78 4.47-3.32 10.5-3.88 3.85-0.35 20.16-0.37 36.25-0.03l29.25 0.62v-612h-800zm775.76 311.37l-23.24 23.11 47.5 47.27c0-72.46-0.23-93.5-0.51-93.5-0.28 0-10.96 10.4-23.75 23.12zm-378.38 48.25c-2.55 4.27-5 6.69-10.11 10.01-4.27 2.77-9.69 5.18-14.75 6.56-4.4 1.2-13.63 2.59-20.5 3.09-6.88 0.5-25.66 0.92-41.75 0.94l-29.25 0.03c-1.55 3.87-2.01 12.99-2.02 22.75 0 9.76-0.23 18.65-0.51 19.75-0.27 1.1-1.62 2.56-2.98 3.25-1.91 0.96-16.71 1.26-63.24 1.29-56.95 0.04-60.89-0.07-62.99-1.75-1.23-0.98-5.17-7.75-8.75-15.04-3.74-7.61-7.36-13.68-8.51-14.25-1.19-0.59-13.05-0.99-29.25-0.98-15.19 0-27.92 0.43-28.75 0.95-0.83 0.51-4.65 7.14-8.5 14.73-4.91 9.67-7.75 14.17-9.5 15.04-1.8 0.88-10.06 1.23-29.25 1.25l-26.75 0.01v8h800v-8c-51.81 0.03-65.68-0.37-67.5-1-1.8-0.61-9.81-8.04-20-18.54l-17-17.51c-34.9 34.78-36.28 35.92-40.5 36.51-2.48 0.34-59.72 0.5-127.2 0.33-98.98-0.23-122.95-0.54-124-1.59-0.98-0.98-1.52-9.9-2.19-36.38l-0.9-35.08z"/>
		<path id="Path 1" class="s1" d="m69.5 611.72c-3.85 0.22-7.61 0.94-8.36 1.59-0.74 0.66-4.86 8.16-9.15 16.69-4.29 8.52-10.23 20.22-13.21 26-2.98 5.77-5.93 11.4-6.55 12.5-0.62 1.1-4.7 8.75-9.05 17-4.36 8.25-10.32 19.5-13.24 25-2.92 5.5-6.36 12.02-7.64 14.5-2.14 4.13-2.34 5.74-2.33 19.5 0 11.8 0.26 14.73 1.21 13.75 0.67-0.69 2.59-1.27 4.27-1.28 2.72-0.03 3.5-0.82 7.22-7.25 2.29-3.97 6.95-12.39 10.35-18.72 3.41-6.33 8.69-16.23 11.73-22 3.05-5.78 8.32-15.67 11.72-22 3.4-6.33 10.15-19.38 15-29 4.85-9.63 9.95-19.53 11.34-22 1.39-2.48 3.24-5.3 4.11-6.28 1.43-1.62 3.83-1.79 26.08-1.79 22.23 0 24.65 0.17 26.13 1.79 0.9 0.98 6.12 10.55 11.61 21.28 5.49 10.72 12.35 24 15.24 29.5 2.9 5.5 6.5 12.25 8.02 15 1.52 2.75 6.57 12.42 11.24 21.5 4.66 9.08 11.58 22.48 15.37 29.78 3.79 7.3 7.34 13.26 7.89 13.24 0.55-0.02 1.62 2.55 2.38 5.72 0.76 3.17 1.1 6.55 0.75 7.51-0.43 1.19-2.15 1.95-5.38 2.37-2.61 0.34-5.54 1.24-6.5 2-0.96 0.76-2.2 1.15-2.75 0.88-0.55-0.28-5.16-0.96-10.25-1.53-5.09-0.57-10.26-1.69-11.5-2.5-1.24-0.81-5.4-7.55-9.25-14.97-5.3-10.23-7.67-13.8-9.75-14.75-2.05-0.93-12.88-1.25-42.75-1.25-33.56 0-40.48 0.24-42.98 1.5-2.22 1.12-4.7 4.67-9.79 14-3.74 6.87-7.58 13.29-8.52 14.26-1.17 1.2-4.54 2.09-10.71 2.84-4.95 0.6-14.06 1.27-20.25 1.49l-11.25 0.41v14c45.94-0.03 54.21-0.38 56-1.26 1.75-0.87 4.6-5.37 9.5-15.04 3.85-7.59 7.67-14.22 8.5-14.73 0.84-0.52 13.56-0.95 28.75-0.95 16.2-0.01 28.06 0.39 29.25 0.98 1.15 0.57 4.77 6.64 8.51 14.25 3.59 7.29 7.52 14.06 8.75 15.04 2.1 1.68 6.05 1.79 62.99 1.75 46.54-0.03 61.33-0.33 63.24-1.29 1.37-0.69 2.71-2.15 2.98-3.25 0.28-1.1 0.51-9.99 0.52-19.75 0-9.76 0.46-18.88 1.01-20.25l1-2.5c45.34-0.05 64.13-0.47 71-0.97 6.91-0.5 16.08-1.89 20.5-3.1 4.76-1.31 10.62-3.87 14.46-6.31q6.45-4.12 10.79-10.12l4.33-6c-0.1 62.96 0.14 69.35 1.32 71 1.42 1.98 2.75 2 124.27 2.29 67.56 0.17 124.85 0.01 127.33-0.33 4.22-0.59 5.6-1.73 22.5-18.57l18-17.94c27.2 28.01 35.2 35.44 37 36.05 1.82 0.63 15.69 1.03 35.25 1.02l32.25-0.02-0.01-45.5-47.49-47.28 47.5-47.22v-40c-45.34-0.96-61.65-0.94-65.5-0.59-6.03 0.56-7.49 1.1-10.5 3.88-1.92 1.77-9.12 9.2-16 16.51l-12.5 13.29-32-32.9c-13.17-1.06-30.5-1.14-47-0.86-16.5 0.28-30.45 0.5-31 0.49-0.55-0.01-39.92-0.23-87.5-0.48-47.58-0.26-87.96-0.21-89.75 0.1-1.79 0.31-3.93 1.23-4.75 2.06-1.17 1.17-1.5 4.12-1.48 13.25l0.01 11.75c-5.06-6.93-8.1-10.43-10.03-12.26-1.93-1.83-7.1-5.06-11.5-7.18-5.31-2.55-11.36-4.47-18-5.7-9.13-1.7-16.04-1.86-79.71-1.86-65.59 0-69.82 0.11-71.5 1.78-1.67 1.67-1.82 5.93-2.29 62.26l-0.5 60.46c-13.58-26.74-19.07-37.42-20.96-41-1.9-3.58-6.91-13.03-11.14-21-4.24-7.98-12.83-24.63-19.09-37-6.26-12.38-12.36-23.17-13.54-24-1.8-1.25-7.5-1.52-34.71-1.59-17.91-0.06-35.71 0.08-39.56 0.31z"/>
		<path id="Path 2" class="s2" d="m79.33 631.26c-1.36 0.78-7.04 10.82-15.12 26.74-7.13 14.02-15.1 29.55-17.72 34.5-2.62 4.95-6.44 12.15-8.5 16-2.05 3.85-5.07 9.48-6.71 12.5-1.64 3.02-5.59 10.45-8.77 16.5-3.18 6.05-6.11 11.45-6.52 12-0.41 0.55-2.78 4.83-5.27 9.5-2.49 4.67-4.68 9.63-4.87 11l-0.35 2.5h35c12.19-23.82 15.18-28.52 17.17-29.74 2.58-1.59 6.67-1.75 45.58-1.75 32.18-0.01 43.38 0.3 45.31 1.24 1.82 0.89 4.43 4.99 9.09 14.25 3.6 7.15 7.29 13.81 8.2 14.8 1.47 1.61 3.25 1.77 16.65 1.5 14.12-0.28 15.02-0.42 15.28-2.3 0.16-1.1-5.32-13.02-12.18-26.5-6.85-13.48-17.91-34.85-24.56-47.5-6.65-12.65-16.92-32.55-22.82-44.23-7.63-15.11-11.3-21.37-12.72-21.73-1.1-0.28-11.45-0.51-23-0.51-14.83 0-21.64 0.36-23.17 1.23z"/>
		<path id="Path 3" class="s3" d="m180.98 730c2.21 4.4 4.25 8 4.52 8 0.28 0-1.3-3.6-3.5-8-2.2-4.4-4.23-8-4.52-8-0.28 0 1.29 3.6 3.5 8zm-120.86 13.91c-1.6 0.48-3.63 3.05-6.25 7.9-2.13 3.95-3.64 7.19-3.37 7.19 0.28 0 1.79-2.59 3.37-5.75 1.58-3.16 3.5-6.31 4.25-7 0.76-0.68 3.63-1.64 6.38-2.13 4.15-0.73 4.41-0.89 1.5-0.9-1.92-0.01-4.57 0.3-5.88 0.69zm86.63 1.15c1.4 0.59 3.76 3.96 6.25 8.94 2.2 4.4 4.23 8 4.5 8 0.28 0-1.12-3.26-3.11-7.25-1.99-3.99-4.35-8.05-5.25-9.03-0.9-0.98-2.31-1.74-3.14-1.69-0.9 0.06-0.6 0.47 0.75 1.03zm-135.5 6.93c-2.36 4.28-3.18 4.98-5.8 5-1.68 0-3.6 0.57-4.27 1.26-0.78 0.8-1.21 4.57-1.2 10.5l0.02 9.25c17.44-0.68 25.65-1.28 29.5-1.78 6.23-0.81 5.15-0.92-9.75-1.06-14.94-0.14-16.82-0.35-17.43-1.91-0.37-0.96 0.08-3.66 1-6 1.05-2.64 1.3-4.44 0.68-4.75-0.55-0.27-0.78-0.95-0.5-1.5 0.27-0.55 1.29-0.99 2.25-0.99 0.96 0.01 2.6-1.45 3.64-3.25 1.04-1.79 2.72-4.72 3.73-6.51 1.02-1.79 1.63-3.25 1.36-3.25-0.26 0-1.72 2.24-3.23 4.99zm158.25 24.05c1.65 0.4 5.03 0.78 7.5 0.84 2.48 0.07 6.08 0.56 8 1.09 2.67 0.75 3.86 0.65 5-0.41 0.82-0.77 2.85-1.59 4.5-1.84 1.65-0.24-3.97-0.43-12.5-0.42-8.52 0.01-14.15 0.34-12.5 0.74z"/>
		<path id="Path 4" class="s4" d="m18 774.74c3.58 0.19 9.65 0.19 13.5 0 3.85-0.19 0.92-0.35-6.5-0.35-7.43 0-10.58 0.16-7 0.35zm162.5 0c3.85 0.19 9.7 0.19 13 0 3.3-0.2 0.15-0.35-7-0.35-7.15 0-9.85 0.16-6 0.35z"/>
		<path id="Path 5" class="s5" d="m3.55 761c-0.3 0.55-0.1 1.23 0.45 1.5q1 0.5 0 2.5c-0.55 1.1-0.89 2.19-0.75 2.43 0.14 0.24 1.26-1.34 2.5-3.5 2.17-3.79 2.18-3.93 0.3-3.93-1.07 0-2.2 0.45-2.5 1z"/>
		<path id="Path 6" class="s6" d="m14.5 773.74c4.4 0.19 11.38 0.19 15.5 0 4.13-0.18 0.53-0.34-8-0.34-8.53 0-11.9 0.16-7.5 0.34zm161 0c4.4 0.19 11.38 0.19 15.5 0 4.13-0.18 0.53-0.34-8-0.34-8.53 0-11.9 0.16-7.5 0.34z"/>
		<path id="Path 7" class="s7" d="m119 741.74c4.67 0.19 11.88 0.19 16 0 4.13-0.18 0.3-0.34-8.5-0.34-8.8 0.01-12.17 0.16-7.5 0.34z"/>
		<path id="Path 8" class="s8" d="m84.5 629.73c2.2 0.21 6.03 0.21 8.5 0 2.47-0.21 0.67-0.38-4-0.38-4.67 0-6.7 0.17-4.5 0.38zm28-0.01c1.65 0.22 4.8 0.22 7 0.01 2.2-0.22 0.85-0.4-3-0.4-3.85-0.01-5.65 0.17-4 0.39zm-40 112.03c6.05 0.17 16.17 0.17 22.5 0 6.33-0.18 1.38-0.32-11-0.32-12.38 0-17.55 0.14-11.5 0.32z"/>
		<path id="Path 9" class="s9" d="m91 628.75c6.33 0.17 16.9 0.17 23.5 0 6.6-0.18 1.43-0.32-11.5-0.32-12.93 0-18.33 0.14-12 0.32zm-7 114c11.83 0.16 30.72 0.16 42 0 11.28-0.16 1.6-0.29-21.5-0.29-23.1 0-32.33 0.13-20.5 0.29z"/>
		<path id="Path 10" class="s0" d="m587.64 657.65c-0.09 5.27-0.61 8.72-1.44 9.55-1.02 1.02-13.11 1.41-56.67 1.8-30.45 0.27-55.7 0.84-56.11 1.25-0.42 0.41 16.76 0.75 38.16 0.75 21.41 0 45.19 0.33 52.86 0.75 8.82 0.47 14.41 1.21 15.25 2 1.01 0.97 1.31 6.91 1.31 26.25 0 22.45-0.18 25.19-1.75 26.82-1.63 1.69-5.23 1.86-53.25 2.43-33.28 0.39-51.85 0.97-52.5 1.64q-1.01 1.03 0.5 2.61c1.33 1.41 7.43 1.59 55 1.56 41.09-0.02 54.08 0.26 56 1.23 2.17 1.1 2.53 2.01 2.75 6.98 0.14 3.15 0.4 5.73 0.59 5.73 0.18 0 8.81-8.44 19.16-18.75 10.35-10.31 21.22-21.34 24.16-24.5l5.34-5.75c-22.15-22.86-33.23-34.25-38.9-40.05l-10.32-10.55z"/>
		<path id="Path 11" class="s1" d="m382.33 14.25c-2.08 3.44-4.51 7.6-5.4 9.25-0.88 1.65-3.32 5.93-5.42 9.5-2.1 3.57-5.48 9.43-7.51 13-2.03 3.57-5.34 9.31-7.35 12.75-2.01 3.44-5.22 8.95-7.15 12.25-1.92 3.3-5.13 8.81-7.13 12.25-2 3.44-4.99 8.72-6.64 11.75-1.66 3.03-3.37 5.95-3.8 6.5-0.43 0.55-3.67 6.18-7.2 12.5-3.53 6.32-8.13 14.43-10.22 18-2.1 3.57-5.47 9.43-7.49 13-2.03 3.57-8.1 14.15-13.5 23.5-5.4 9.35-13.2 22.85-17.34 30-4.13 7.15-9.31 16.15-11.51 20-2.19 3.85-5.52 9.7-7.4 13-1.88 3.3-5.3 9.24-7.59 13.19-2.3 3.96-8.91 15.33-14.68 25.28-5.77 9.94-12.3 21.18-14.5 24.97-2.2 3.79-8.73 15.04-14.5 24.99-5.77 9.96-10.96 18.88-11.51 19.84-0.56 0.95-2.99 5.11-5.39 9.23-2.41 4.13-7.54 12.9-11.39 19.5-3.86 6.6-8.22 14.02-9.7 16.5-1.48 2.48-4.63 7.88-7.01 12-2.38 4.13-5.53 9.52-7 12-1.47 2.48-4.49 7.65-6.71 11.5-2.23 3.85-7.54 13.07-11.81 20.5-4.28 7.43-8.77 15.07-9.99 17-1.22 1.93-5.32 8.83-9.1 15.35-3.79 6.52-8.01 13.8-9.39 16.17-1.37 2.38-5.31 8.97-8.74 14.65l-6.23 10.33 0.47 33c28.91 0.44 33.27 0.17 36-1l3.5-1.5v20c7.36 0.99 18.5 0.95 29.5 0.55 11-0.4 52.85-1.03 93-1.4 65.08-0.61 73.43-0.86 77-2.36 2.2-0.92 8.95-3.76 15-6.31 6.05-2.54 13.25-5.44 16-6.43 2.75-0.99 7.02-2.74 9.5-3.89 2.48-1.15 10.13-4.37 17-7.17 6.88-2.79 14.98-6.14 18-7.44 3.02-1.29 9.89-4.2 15.25-6.45 5.36-2.26 10.09-4.1 10.5-4.11 0.41 0 4.13-1.55 8.25-3.44 4.13-1.89 12.67-5.54 19-8.11 6.33-2.58 13.86-5.76 16.75-7.06 2.89-1.31 5.48-2.38 5.75-2.38 0.27 0 6.01-2.26 12.75-5.01 6.74-2.76 13.6-5.62 15.25-6.36 1.65-0.74 4.13-1.84 5.5-2.43 1.38-0.6 5.76-2.46 9.75-4.14 3.99-1.68 7.7-3.06 8.25-3.06 0.55 0 3.5 4.39 6.55 9.75 3.05 5.36 6.08 10.65 6.73 11.75 0.64 1.1 2.8 4.7 4.79 8 1.99 3.3 5.44 9.15 7.67 13 2.23 3.85 7.08 12.17 10.78 18.5 3.69 6.33 8.62 14.42 10.94 18l4.22 6.5c38.61 1.16 67.71 1.5 89.57 1.5 24.17 0 40.73-0.39 42.25-1l2.5-1c-0.04-29.97-0.33-33.12-1.91-36.5-1.02-2.2-5.71-10.3-10.41-18-4.71-7.7-10.67-17.6-13.26-22-2.58-4.4-6.37-10.7-8.42-14-2.04-3.3-4.56-7.45-5.61-9.23-1.04-1.77-5.04-8.4-8.89-14.73-3.85-6.33-8.58-14.18-10.5-17.45-1.92-3.28-6.14-10.37-9.36-15.77-3.23-5.4-6.88-11.39-8.12-13.32-1.25-1.93-5.1-8.23-8.57-14-3.47-5.77-7.74-12.98-9.5-16-1.75-3.02-6.44-10.9-10.43-17.5-3.99-6.6-8.21-13.02-9.39-14.28-1.84-1.96-3.11-2.27-9.38-2.25l-7.25 0.03v-32c-7.52-13.56-11.35-20.31-13.35-23.75-2.01-3.44-5.29-9.06-7.3-12.5-2.01-3.44-4.99-8.73-6.64-11.75-1.64-3.02-4.05-7.07-5.35-9-1.31-1.93-2.37-3.84-2.36-4.25 0-0.41-1.35-2.77-3-5.25-1.65-2.48-2.99-4.61-2.97-4.75 0.01-0.14-5.39-9.93-12.01-21.75-6.61-11.82-12.44-22.18-12.95-23-0.51-0.82-4.42-7.57-8.7-15-4.28-7.43-8.77-15.3-9.97-17.5-1.2-2.2-8.08-14.35-15.29-27-7.21-12.65-13.79-24.13-14.64-25.5-0.84-1.38-3.2-5.58-5.25-9.34-2.05-3.77-4.39-8.05-5.22-9.52-0.83-1.47-6.85-12.12-13.39-23.66-6.53-11.54-12.65-22.11-13.6-23.48-0.94-1.38-3.14-5.2-4.88-8.5-1.74-3.3-4.76-8.93-6.72-12.5-1.97-3.57-4.32-7.3-5.24-8.28-1.47-1.57-3.59-1.78-17.86-1.75l-16.19 0.03zm-288.86 658.15c-0.9 1.15-4.24 7.5-7.44 14.1-3.2 6.6-7.19 15.15-8.87 19-1.68 3.85-2.86 8.01-2.61 9.25 0.42 2.1 0.99 2.26 8.7 2.36 4.54 0.06 15.97 0.18 25.42 0.25 9.44 0.08 17.54-0.25 18-0.73 0.45-0.47 1.11-2.72 1.44-5 0.43-2.88 0.05-5.57-1.25-8.88-1.02-2.61-4.73-10.49-8.23-17.5-3.5-7.01-6.99-13.29-7.75-13.96-1.05-0.91-2.22-0.93-4.88-0.08-2.46 0.79-4.6 0.82-7.21 0.1-3.26-0.9-3.9-0.77-5.32 1.09z"/>
		<path id="Path 12" class="s2" d="m230 630.94c-1.3 0.86-1.54 9.67-1.78 67.27-0.15 36.46 0.1 68.09 0.55 70.29l0.83 4c21.88 0 28.61-0.37 29.07-0.83 0.46-0.46 1.06-10.06 1.33-21.34 0.46-18.93 0.65-20.64 2.5-22.22 1.79-1.54 6.21-1.79 42-2.34 31.77-0.5 41.54-0.97 47.5-2.29 4.13-0.91 10.6-3.3 14.39-5.32 3.79-2.01 8.72-5.69 10.95-8.16 2.24-2.48 5.33-7.2 6.88-10.5 2.15-4.59 2.96-8.12 3.44-15 0.36-5.25 0.14-11.82-0.52-15.75-0.63-3.71-2.36-9.34-3.85-12.5-1.49-3.16-5-8-7.8-10.75-2.79-2.75-7.99-6.42-11.54-8.15-3.55-1.73-9.83-3.94-13.95-4.91-6.57-1.54-14.37-1.8-63-2.12-35.48-0.24-56.04-0.01-57 0.62zm192.53 0.34c-1.87 1.26-1.91 3.12-1.47 69.96 0.35 54.52 0.71 68.93 1.74 69.96 1.03 1.04 15.3 1.36 70 1.61 37.78 0.17 70.05 0.06 71.7-0.25l3-0.56c0-13.17 0-17.01 0-17.04 0-0.02-23.85-0.27-53-0.55-29.15-0.29-54.46-0.94-56.25-1.46-1.79-0.52-3.7-1.85-4.25-2.95-0.55-1.1-0.99-8.86-0.99-17.25 0.01-8.39 0.25-16.15 0.54-17.25 0.29-1.1 1.52-2.67 2.74-3.5 1.87-1.27 10.11-1.58 53.21-2l51-0.5 0.59-18c-8.21-1.15-31.63-1.49-57.34-1.49-45.41-0.01-46.81-0.07-48.75-2.01-1.81-1.81-2-3.32-1.99-16.25 0.01-7.84 0.35-15.32 0.75-16.63 0.41-1.32 1.98-3 3.49-3.75 2.22-1.11 12.82-1.37 55-1.35 40.58 0.01 52.65-0.27 54.05-1.25 1.52-1.08 1.75-2.49 1.5-9.27l-0.3-8c-6.98-1.05-39.16-1.39-76.03-1.43-53.02-0.05-67.42 0.2-68.94 1.21zm190.72-0.61c-4.06 0.32-4.22 0.45-3.66 3.08 0.32 1.51 2.44 4.77 4.7 7.25 2.26 2.47 9.53 10.11 16.16 16.96 6.63 6.85 17.47 17.88 24.1 24.5 6.63 6.62 12.8 13.16 13.72 14.54 1.52 2.28 1.53 2.76 0.11 5.5-0.85 1.65-12.94 14.47-26.86 28.5-13.92 14.02-27.23 27.75-29.57 30.5-2.34 2.75-4.97 6.02-5.85 7.28-0.88 1.25-1.23 2.6-0.77 3 0.46 0.39 9.01 0.88 19 1.08l18.17 0.36c46.5-46.69 50.42-50.21 53-50.22 2.61-0.02 6.18 3.23 27.5 25.04l24.5 25.05c29.71-0.46 38.71-0.92 39.17-1.33 0.46-0.41-2.07-4.01-5.61-8-3.55-3.99-18.26-18.96-32.7-33.26-14.44-14.3-26.67-27.13-27.18-28.5-0.57-1.53-0.57-3.47 0-5 0.51-1.38 13.42-15.1 28.7-30.5 15.28-15.4 28.75-29.46 29.95-31.25l2.17-3.25c-5.81-1.1-14.38-1.43-22.8-1.46l-15.3-0.04c-41.55 42.6-46.92 47.55-48.9 47.51-1.75-0.04-4.61-2.23-9.51-7.28-3.86-3.98-13.87-14.32-22.25-22.98-8.38-8.66-16.37-16.2-17.74-16.75-1.38-0.55-8.24-0.92-15.25-0.83-7.01 0.1-14.66 0.33-17 0.5z"/>
		<path id="Path 13" class="s3" d="m427.5 627c-2.31 0.59-1.51 0.77 3.5 0.81 4.47 0.03 5.88-0.22 4.5-0.81-1.1-0.47-2.68-0.84-3.5-0.81-0.82 0.03-2.85 0.39-4.5 0.81zm228.44 9.75c2.44 2.61 9.15 9.48 14.92 15.25 7.14 7.15 5.88 5.62-3.94-4.8-7.93-8.41-14.64-15.27-14.92-15.25-0.27 0.03 1.5 2.19 3.94 4.8zm-239.08 58.75c-0.04 33-0.03 61.01 0.03 62.25 0.06 1.24-0.34 2.25-0.89 2.25-0.55 0-1.02 0.56-1.04 1.25-0.03 0.69 0.65 1.92 1.51 2.75 0.86 0.83 1.7 2.63 1.86 4 0.17 1.38 0.12-27.65-0.11-64.5-0.23-36.85-0.61-67.23-0.85-67.5-0.23-0.27-0.46 26.5-0.51 59.5zm337.14-29.5c-16.56 16.49-30.07 30.56-30.04 31.25 0.05 0.96 0.24 0.97 0.81 0.05 0.4-0.66 14.2-14.73 30.66-31.25 16.46-16.53 29.64-30.05 29.3-30.05-0.34 0-14.17 13.5-30.73 30zm-145.17-26.01c0.92 1.65 2.12 3.01 2.67 3.02 0.55 0 3.25 2.14 6 4.75 2.92 2.76 2.01 1.51-2.2-3.02-3.96-4.26-7.41-7.74-7.67-7.74-0.26 0 0.28 1.35 1.2 2.99zm105.14 17.52c-4.11 4.13-7.24 7.51-6.97 7.51 0.27 0 3.86-3.38 7.97-7.51 4.11-4.13 7.25-7.51 6.98-7.51-0.28 0-3.86 3.38-7.98 7.51zm-234.97-4.51l-19.5 0.53c40.3 1.14 57.85 1.5 65 1.54 7.15 0.04 18.7-0.3 25.67-0.75 6.97-0.45 12.86-1.08 13.1-1.4 0.24-0.32-14.24-0.55-32.17-0.52-17.93 0.03-41.37 0.3-52.1 0.6zm-379.14 6.71c-0.85 0.98-3.21 4.94-5.26 8.79-2.79 5.23-3.15 6.35-1.42 4.44 2.07-2.29 2.7-2.46 5.82-1.6 2.37 0.66 4.63 0.61 7-0.14 2.65-0.84 3.83-0.82 4.87 0.09 0.76 0.67 2.2 2.79 3.21 4.71 1.01 1.92 1.84 3.05 1.86 2.5 0.02-0.55-2.37-5.27-5.31-10.5-3.54-6.3-6-9.6-7.29-9.79-1.08-0.17-2.64 0.51-3.48 1.5zm536.66 8.27c3.86 4.14 11.74 12.39 17.5 18.34l10.48 10.81c-1.37 7.24-3 9.87-6.79 13.92-2.87 3.05-1.95 2.26 2.04-1.75 4.15-4.18 7.25-8.16 7.25-9.3 0-1.26-6.92-8.93-18.75-20.77-10.31-10.32-15.59-15.39-11.73-11.25zm-180.16 7.02c0 5.23 0.17 7.25 0.38 4.5 0.2-2.75 0.2-7.02 0-9.5-0.21-2.48-0.38-0.23-0.38 5zm244.89-4.97c-2.88 2.69-5.02 3.89-6.63 3.72-1.31-0.14-2.21 0.09-2 0.5 0.21 0.41 1.28 0.75 2.38 0.75 1.1 0 4.14-2.01 6.75-4.48 2.61-2.46 4.53-4.47 4.25-4.47-0.27 0-2.41 1.79-4.75 3.98zm50.75 60.47c15.13 15.13 27.73 27.5 28 27.5 0.28 0-11.76-12.37-26.74-27.5-14.98-15.12-27.58-27.5-28-27.5-0.42 0 11.62 12.37 26.74 27.5zm-623.42-21.9c-0.5 0.4-0.84 1.78-0.75 3.07 0.1 1.28-0.05 3-0.33 3.83-0.36 1.07-2.13 1.55-6.25 1.66-4.01 0.11-4.69 0.29-2.25 0.58 1.92 0.23 5.41 0.16 7.75-0.16 2.78-0.38 4.47-1.19 4.89-2.33 0.34-0.96 0.01-3.02-0.75-4.57-0.77-1.55-1.8-2.48-2.31-2.08zm346.92 5.14c3.3 0.2 8.25 0.2 11 0 2.75-0.21 0.05-0.37-6-0.37-6.05 0.01-8.3 0.17-5 0.37zm33.5 0.01c8.52 0.17 22.02 0.17 30 0 7.98-0.17 1-0.31-15.5-0.31-16.5 0-23.02 0.14-14.5 0.31zm-52.61 17.75c0 7.15 0.16 9.85 0.35 6 0.19-3.85 0.19-9.7 0-13-0.2-3.3-0.35-0.15-0.35 7zm167.6 13.25l-15.49 15.75c24.42-24.02 31.51-31.11 31.5-31.25 0-0.14-0.12-0.25-0.26-0.25-0.15 0-7.23 7.09-15.75 15.75zm40.48 9.42c-7.68 7.79-12.85 13.44-11.47 12.56 1.37-0.89 7.82-7.26 14.31-14.17 6.5-6.91 11.66-12.56 11.47-12.56-0.19 0-6.63 6.38-14.31 14.17zm-190.97-3.13c3.3 0.41 11.18 0.74 17.5 0.73 7.26 0 10.39-0.29 8.5-0.77-1.65-0.42-9.52-0.75-17.5-0.73-11.16 0.02-13.12 0.2-8.5 0.77zm-211.3 10.46c-0.03 5.27 0.25 7.32 0.81 6 0.47-1.1 0.85-3.8 0.85-6 0-2.2-0.36-4.9-0.81-6-0.51-1.27-0.82 0.91-0.85 6zm530.3 11.37c0 1.39-1.88 1.71-13 2.18l-13 0.54c18.99 0.32 25.18 0.18 26-0.09 0.83-0.27 1.55-1.15 1.6-1.94 0.06-0.79-0.28-1.64-0.75-1.88-0.47-0.24-0.85 0.3-0.85 1.19zm-560.5 2.57c0.28 0.28 3.03 0.58 6.11 0.66 3.09 0.09 5.98-0.12 6.42-0.47 0.44-0.35-2.31-0.64-6.11-0.66-3.81-0.01-6.69 0.2-6.42 0.47zm14.62 1.56c0.24 1.26 0.85 1.74 1.63 1.3 0.69-0.39 2.38-1.28 3.75-1.99 2.42-1.26 2.37-1.3-1.63-1.3-3.59-0.01-4.08 0.25-3.75 1.99zm182.38 0.05c2.48 1.1 4.61 1.99 4.75 1.98 0.14-0.02 0.32-0.72 0.4-1.56 0.12-1.23 1.08-1.43 4.75-0.99 2.53 0.3 9.55 0.15 15.6-0.32 10.65-0.84 10.34-0.87-9.5-0.99l-20.5-0.13zm180.5-0.79c5.96 0.64 10.01 0.62 12-0.04 2.33-0.79 0.34-1-9-0.97l-12 0.05z"/>
		<path id="Path 14" class="s4" d="m419.24 720.75c-0.13 27.64-0.01 50.92 0.26 51.75 0.27 0.83 1.06 1.52 1.75 1.54 0.98 0.04 0.99-0.23 0.04-1.25-0.91-0.97-1.29-13.95-1.51-51.79l-0.3-50.5zm-29.9-40.75c0 4.12 0.17 5.92 0.39 4 0.21-1.92 0.21-5.3 0-7.5-0.22-2.2-0.39-0.63-0.39 3.5zm353.16 43c4.95 4.96 9.23 9.01 9.5 9.01 0.28 0-3.42-4.05-8.21-9-4.79-4.96-9.06-9.01-9.5-9.02-0.43 0 3.26 4.05 8.21 9.01zm-288.13 11.5c0 5.5 0.17 7.52 0.37 4.5 0.2-3.02 0.2-7.52-0.01-10-0.2-2.48-0.37 0-0.36 5.5zm-192.97 22.5c0 8.52 0.16 11.9 0.34 7.5 0.19-4.4 0.19-11.38 0-15.5-0.18-4.13-0.34-0.52-0.34 8zm394.58 4.75l-11.48 11.75c18.22-17.83 23.51-23.11 23.51-23.25-0.01-0.14-0.13-0.25-0.28-0.25-0.14 0-5.43 5.29-11.75 11.75zm-175.48-9c6.05 0.17 15.5 0.17 21 0 5.5-0.18 0.55-0.33-11-0.33-11.55 0-16.05 0.15-10 0.33zm-242.5 21.99c3.58 0.19 9.65 0.19 13.5 0 3.85-0.19 0.93-0.35-6.5-0.35-7.42 0-10.57 0.16-7 0.35zm202 0.01c9.63 0.16 25.15 0.16 34.5 0 9.35-0.17 1.48-0.3-17.5-0.3-18.97 0-26.62 0.13-17 0.3zm178-0.01c4.68 0.19 11.88 0.19 16 0 4.13-0.18 0.3-0.34-8.5-0.34-8.8 0.01-12.17 0.16-7.5 0.34zm140 0.01c5.23 0.18 14 0.18 19.5 0 5.5-0.18 1.23-0.33-9.5-0.33-10.72 0-15.22 0.15-10 0.33z"/>
		<path id="Path 15" class="s5" d="m457.11 654.25c-0.64 0.71-0.98 3.64-0.8 6.75l0.32 5.5c0.32-10.06 0.81-11.74 2.12-12.47 0.96-0.53 1.24-0.98 0.61-1-0.62-0.02-1.64 0.53-2.25 1.22zm-357.6 4.4c-1.32 1.45-2.44 3.14-2.49 3.75-0.05 0.6 0.75-0.14 1.77-1.65 1.02-1.51 2.72-2.77 3.78-2.8 1.06-0.02 2.74 0.99 3.73 2.25 0.98 1.27 1.48 1.63 1.09 0.8-0.38-0.83-1.41-2.3-2.29-3.28-0.88-0.98-1.96-1.77-2.4-1.75-0.43 0.02-1.87 1.22-3.19 2.68zm-26.08 52.6c-0.33 1.24-0.44 3.15-0.26 4.25 0.25 1.42 1.21 2.06 3.34 2.2 2.81 0.18 2.84 0.15 0.49-0.57-2.1-0.64-2.49-1.35-2.42-4.44 0.05-2.03-0.05-3.69-0.23-3.69-0.18 0-0.59 1.01-0.92 2.25z"/>
		<path id="Path 16" class="s10" d="m418.45 666c0 17.33 0.13 24.52 0.3 16 0.16-8.52 0.16-22.7 0-31.5-0.17-8.8-0.3-1.83-0.3 15.5zm50.55-13.25c5.23 0.18 14 0.18 19.5 0 5.5-0.18 1.23-0.33-9.5-0.33-10.73 0-15.23 0.15-10 0.33zm-13.63 18.25c0 5.77 0.17 8.02 0.37 5 0.2-3.02 0.2-7.75 0-10.5-0.2-2.75-0.37-0.27-0.37 5.5zm108.96 29.5c0 3.85 0.18 5.2 0.4 3 0.21-2.2 0.21-5.35-0.01-7-0.22-1.65-0.4 0.15-0.39 4zm170.17 13.5c6.05 6.06 11.23 11.01 11.5 11.01 0.28 0-4.32-4.95-10.22-11-5.89-6.06-11.07-11.01-11.5-11.02-0.43 0 4.17 4.95 10.22 11.01zm-239-1.25c11.55 0.16 30.67 0.16 42.5 0 11.83-0.16 2.38-0.29-21-0.29-23.37 0-33.05 0.13-21.5 0.29zm-410 6c4.95 0.18 13.28 0.18 18.5 0 5.23-0.19 1.18-0.33-9-0.33-10.17 0-14.45 0.14-9.5 0.33zm369.89 13.25c0 7.42 0.16 10.35 0.35 6.5 0.19-3.85 0.19-9.92 0-13.5-0.19-3.58-0.35-0.42-0.35 7zm-193.03 11c0 5.23 0.17 7.25 0.38 4.5 0.2-2.75 0.2-7.02 0-9.5-0.21-2.48-0.38-0.23-0.38 5zm203.14 8.74c2.75 0.2 6.8 0.2 9-0.01 2.2-0.21-0.05-0.38-5-0.38-4.95 0.01-6.75 0.18-4 0.39zm319.5 12.76c3.58 3.59 6.73 6.52 7 6.52 0.28 0-2.29-2.93-5.69-6.51-3.41-3.58-6.56-6.51-7-6.52-0.45 0 2.12 2.92 5.69 6.51z"/>
		<path id="Path 17" class="s6" d="m760.48 656.25l-8.98 9.25c14.35-13.95 18.51-18.11 18.51-18.25-0.01-0.14-0.13-0.25-0.28-0.25-0.15 0-4.31 4.16-9.25 9.25zm-274.48-5.5c14.57 0.16 38.65 0.16 53.5 0 14.85-0.16 2.92-0.28-26.5-0.28-29.43 0-41.57 0.12-27 0.28zm226.98 11l-10.48 10.75c16.67-16.27 21.51-21.11 21.51-21.25-0.01-0.14-0.13-0.25-0.28-0.25-0.15 0-4.98 4.84-10.75 10.75zm-259.58 9.75c0 8.25 0.16 11.4 0.34 7 0.19-4.4 0.19-11.15 0-15-0.19-3.85-0.34-0.25-0.34 8zm-32.94 46.5c0 28.33 0.13 39.8 0.29 25.5 0.16-14.3 0.16-37.48 0-51.5-0.16-14.02-0.29-2.33-0.29 26zm314.02-35.99c-6.59 6.6-11.75 12-11.48 12 0.27 0 5.89-5.4 12.48-12 6.59-6.61 11.76-12.01 11.49-12.01-0.28 0-5.89 5.4-12.49 12.01zm-172.49 17.79l0.49 8.7c0.43-12.4 0.2-16.32-0.22-16.7-0.42-0.39-0.54 3.21-0.27 8zm-80.99 10.95c10.73 0.16 28.73 0.16 40 0 11.27-0.16 2.5-0.29-19.5-0.29-22 0-31.23 0.13-20.5 0.29zm-27.63 26.75c0.01 6.05 0.17 8.3 0.37 5 0.2-3.3 0.2-8.25 0-11-0.21-2.75-0.37-0.05-0.37 6zm-192.98 10c0 7.15 0.16 9.85 0.35 6 0.19-3.85 0.19-9.7 0-13-0.2-3.3-0.35-0.15-0.35 7zm212.61 6.25c6.87 0.17 17.67 0.17 24 0 6.32-0.18 0.7-0.32-12.5-0.32-13.2 0-18.38 0.14-11.5 0.32zm68-0.02c1.92 0.21 5.3 0.21 7.5 0 2.2-0.22 0.62-0.39-3.5-0.39-4.13 0-5.92 0.17-4 0.39zm28.34 9.77c0.01 4.4 0.18 5.98 0.39 3.5 0.21-2.48 0.21-6.08 0-8-0.22-1.92-0.39 0.1-0.39 4.5zm-330.84 10.24c3.3 0.2 8.25 0.2 11 0 2.75-0.21 0.05-0.37-6-0.37-6.05 0.01-8.3 0.17-5 0.37zm194 0c4.4 0.19 11.37 0.19 15.5 0 4.12-0.18 0.52-0.34-8-0.34-8.53 0-11.9 0.16-7.5 0.34zm191.5 0c3.58 0.2 8.97 0.19 12 0 3.02-0.2 0.1-0.36-6.5-0.36-6.6 0-9.08 0.17-5.5 0.36zm134 0.01c5.22 0.18 14 0.18 19.5 0 5.5-0.18 1.22-0.33-9.5-0.33-10.73 0-15.23 0.15-10 0.33z"/>
		<path id="Path 18" class="s7" d="m271 629.73c2.48 0.21 6.07 0.21 8 0 1.93-0.22-0.1-0.39-4.5-0.39-4.4 0.01-5.98 0.18-3.5 0.39zm48.5 0.01c3.3 0.2 8.93 0.2 12.5 0 3.57-0.19 0.88-0.35-6-0.35-6.88 0-9.8 0.16-6.5 0.35zm147 0.01c17.05 0.15 44.5 0.15 61 0 16.5-0.15 2.55-0.28-31-0.28-33.55 0-47.05 0.13-30 0.28zm161.5-0.01c3.02 0.2 8.2 0.2 11.5 0 3.3-0.2 0.83-0.36-5.5-0.36-6.33 0-9.02 0.16-6 0.36zm127 0.01c5.77 0.17 14.77 0.17 20-0.01 5.23-0.17 0.5-0.32-10.5-0.32-11 0-15.27 0.15-9.5 0.33zm-527.53 69.75c0 29.7 0.12 41.62 0.28 26.5 0.16-15.13 0.15-39.42 0-54-0.16-14.58-0.28-2.2-0.28 27.5zm235.53-9.77c1.93 0.21 5.3 0.21 7.5 0 2.2-0.22 0.63-0.39-3.5-0.39-4.12 0-5.92 0.17-4 0.39zm25.5 0.02c7.7 0.17 19.85 0.17 27 0 7.15-0.17 0.85-0.31-14-0.31-14.85 0-20.7 0.14-13 0.31zm-205 37c9.35 0.16 24.43 0.16 33.5 0 9.08-0.17 1.43-0.3-17-0.3-18.42 0-25.85 0.13-16.5 0.3z"/>
		<path id="Path 19" class="s8" d="m235.5 629.74c3.3 0.2 8.93 0.2 12.5 0 3.57-0.19 0.88-0.35-6-0.35-6.88 0-9.8 0.16-6.5 0.35zm61-0.01c2.2 0.21 6.02 0.21 8.5 0 2.48-0.21 0.68-0.38-4-0.38-4.68 0-6.7 0.17-4.5 0.38zm314-0.01c1.65 0.22 4.8 0.22 7 0.01 2.2-0.22 0.85-0.4-3-0.4-3.85-0.01-5.65 0.17-4 0.39zm-383.17 9.78c0 3.85 0.18 5.2 0.4 3 0.21-2.2 0.21-5.35-0.01-7-0.22-1.65-0.4 0.15-0.39 4zm309.67 50.23c2.48 0.21 6.08 0.21 8 0 1.92-0.22-0.1-0.39-4.5-0.39-4.4 0.01-5.98 0.18-3.5 0.39zm211.99 40.52c0 0.14 3.48 3.62 7.75 7.75l7.76 7.5c-11.16-12.01-14.65-15.5-14.95-15.5-0.3 0-0.55 0.11-0.56 0.25zm-93.51 31l-10.98 11.25c17.45-17.05 22.51-22.11 22.51-22.25-0.01-0.14-0.13-0.25-0.28-0.25-0.14 0-5.21 5.06-11.25 11.25zm-137.98-7.52c2.2 0.21 6.02 0.21 8.5 0 2.48-0.21 0.67-0.38-4-0.38-4.67 0-6.7 0.17-4.5 0.38zm37.5 0c1.92 0.21 5.3 0.21 7.5 0 2.2-0.22 0.62-0.39-3.5-0.39-4.13 0-5.92 0.17-4 0.39zm217.99 0.52c0 0.14 3.48 3.62 7.75 7.75l7.76 7.5c-11.16-12.01-14.65-15.5-14.95-15.5-0.3 0-0.55 0.11-0.56 0.25zm-272.99 19.5c7.98 0.17 20.58 0.17 28 0 7.42-0.17 0.9-0.31-14.5-0.31-15.4 0-21.48 0.14-13.5 0.31z"/>
		<path id="Path 20" class="s11" d="m607.2 630.77c-1 0.56-0.83 1.3 0.77 3.23l2.06 2.5c-1-5.36-0.82-5.52 3.22-5.83l4.25-0.32c-6.98-0.25-9.58 0.01-10.3 0.42zm164.8-0.1c1.92 0.19 4.96 0.57 6.75 0.84l3.25 0.49c-3.49 4.81-5.12 7.17-5.89 8.35-0.76 1.18 1.04-0.31 4-3.32l5.39-5.47c-6.2-1.12-10.03-1.4-12.5-1.34-3.75 0.08-3.91 0.16-1 0.45zm-204.18 3.58c-0.19 0.69-0.08 3.95 0.25 7.25l0.59 6c0.26-11.24 0.15-14.5-0.08-14.5-0.22 0-0.57 0.56-0.76 1.25zm-147.45 20.75c0 5.77 0.17 8.02 0.37 5 0.2-3.02 0.2-7.75 0-10.5-0.2-2.75-0.37-0.27-0.37 5.5zm140.62 45.7c-0.27 5.07-0.15 8.89 0.27 8.5 0.42-0.38 0.64-4.53 0.5-9.2l-0.28-8.5zm-465.99 20.04c4.13 0.19 10.65 0.19 14.5 0 3.85-0.19 0.48-0.35-7.5-0.35-7.97 0-11.12 0.16-7 0.35zm433.5 33.99c2.75 0.21 6.8 0.2 9 0 2.2-0.21-0.05-0.38-5-0.38-4.95 0-6.75 0.17-4 0.38zm27.5-0.01c1.93 0.22 5.3 0.22 7.5 0 2.2-0.21 0.63-0.39-3.5-0.39-4.12 0-5.92 0.18-4 0.39zm11.66 2.28c-0.46 1.37-0.57 5.31-0.24 8.75 0.5 5.42 0.35 6.3-1.17 6.63-1.66 0.37-1.66 0.39 0 0.5 0.96 0.06 1.99-0.45 2.28-1.13 0.29-0.69 0.41-4.85 0.25-9.25-0.21-5.89-0.5-7.34-1.12-5.5zm213.04 6.58c3.27 3.9 6.03 7.39 6.13 7.75 0.09 0.37-0.62 0.84-1.58 1.05-0.96 0.21-0.51 0.44 1 0.5 1.62 0.07 2.73-0.4 2.71-1.13-0.03-0.69-3.23-4.4-7.13-8.25l-7.09-7zm-172.7 0.69c-3.54 3.45-6.35 6.71-6.24 7.25 0.11 0.53 1.67 1.31 3.47 1.73 1.8 0.42 4.18 0.77 5.28 0.78 1.1 0.01 1.62-0.34 1.15-0.76-0.46-0.43-2.04-0.93-3.5-1.1-1.46-0.18-2.88-0.51-3.15-0.73-0.28-0.22 0.28-1.54 1.25-2.93 0.96-1.38 3.36-4.32 5.33-6.52 1.98-2.2 3.42-4 3.22-4-0.2 0-3.26 2.82-6.81 6.28zm-186.85 1.72c-0.1 2.52 0.38 5.06 1.09 5.77 0.7 0.69 3.07 1.19 5.27 1.1l4-0.17-9-1.2-1.19-10z"/>
		<path id="Path 21" class="s9" d="m256 628.75c14.57 0.16 37.98 0.16 52 0 14.02-0.16 2.1-0.29-26.5-0.28-28.6 0-40.07 0.12-25.5 0.28zm203 0c20.07 0.15 52.48 0.15 72 0 19.52-0.15 3.1-0.28-36.5-0.28-39.6 0-55.57 0.13-35.5 0.28zm157 0c5.23 0.18 14 0.18 19.5 0 5.5-0.18 1.23-0.33-9.5-0.33-10.73 0-15.23 0.15-10 0.33zm139.5 0c5.5 0.18 14.05 0.18 19-0.01 4.95-0.18 0.45-0.32-10-0.32-10.45 0-14.5 0.15-9 0.33zm-529.03 73.25c0 36.58 0.13 51.42 0.28 33 0.15-18.42 0.15-48.35 0-66.5-0.15-18.15-0.28-3.08-0.28 33.5zm409.52-35.75c0 0.14 3.48 3.63 7.75 7.75l7.76 7.5c-11.16-12.01-14.65-15.5-14.95-15.5-0.3 0-0.55 0.11-0.56 0.25zm-149.99 22.48c2.48 0.21 6.07 0.21 8 0 1.93-0.22-0.1-0.39-4.5-0.39-4.4 0.01-5.98 0.18-3.5 0.39zm35.5 0.01c4.4 0.19 11.38 0.19 15.5 0 4.13-0.18 0.52-0.34-8-0.34-8.52 0-11.9 0.16-7.5 0.34zm-237.5 39c3.02 0.2 8.2 0.2 11.5 0 3.3-0.2 0.82-0.36-5.5-0.36-6.32 0-9.02 0.16-6 0.36zm237.5 25.01c6.05 0.17 16.17 0.17 22.5 0 6.33-0.18 1.37-0.32-11-0.32-12.38 0-17.55 0.14-11.5 0.32zm-15 22c8.8 0.16 23.42 0.16 32.5 0 9.08-0.17 1.87-0.3-16-0.3-17.88 0-25.3 0.13-16.5 0.3z"/>
		<path id="Path 22" class="s12" d="m465 688.74c3.02 0.2 8.2 0.2 11.5 0 3.3-0.2 0.82-0.36-5.5-0.36-6.32 0-9.02 0.16-6 0.36zm36.5 0c2.75 0.2 6.8 0.2 9-0.01 2.2-0.21-0.05-0.38-5-0.38-4.95 0.01-6.75 0.18-4 0.39zm-384.5 29.99c2.47 0.21 6.08 0.21 8 0 1.92-0.22-0.1-0.39-4.5-0.39-4.4 0.01-5.97 0.18-3.5 0.39zm191.5 9.01c4.4 0.19 11.15 0.19 15 0 3.85-0.19 0.25-0.34-8-0.34-8.25 0-11.4 0.16-7 0.34z"/>
		<path id="Path 23" class="s13" d="m419.42 652c0 10.73 0.15 15.23 0.33 10 0.18-5.23 0.18-14 0-19.5-0.18-5.5-0.33-1.23-0.33 9.5zm67.58-0.25c14.57 0.16 37.98 0.16 52 0 14.02-0.16 2.1-0.29-26.5-0.28-28.6 0-40.08 0.12-25.5 0.28zm76.35 49.25c0 4.67 0.17 6.48 0.38 4 0.21-2.48 0.21-6.3 0-8.5-0.21-2.2-0.38-0.17-0.38 4.5zm-77.35 10.75c14.02 0.16 36.75 0.16 50.5 0 13.75-0.16 2.27-0.29-25.5-0.29-27.77 0-39.02 0.13-25 0.29zm-397.5 8c7.15 0.17 18.62 0.17 25.5 0 6.87-0.17 1.02-0.32-13-0.32-14.03 0-19.65 0.15-12.5 0.32z"/>
		<path id="Path 24" class="s0" d="m402.85 289.4c-0.74 1.35-4.4 7.99-8.14 14.77-3.73 6.78-8.34 15.03-10.25 18.33-1.91 3.3-5.07 8.93-7.03 12.5-1.95 3.58-5.47 9.88-7.81 14-2.35 4.13-5.42 9.53-6.82 12-1.41 2.48-6.51 11.7-11.35 20.5-4.83 8.8-9.95 18.09-11.37 20.65-1.42 2.56-5.86 10.66-9.87 18-4.02 7.34-8.97 16.36-11 20.05-2.04 3.68-4.28 7.28-4.98 8-0.69 0.71-1.26 1.86-1.25 2.55 0.01 0.69 0.24 1.25 0.52 1.25 0.27 0 1.29-0.44 2.25-0.97 0.96-0.53 4.67-2.27 8.25-3.87 3.57-1.6 11.45-5 17.5-7.56 6.05-2.56 12.8-5.53 15-6.6 2.2-1.07 6.7-3.13 10-4.59 3.3-1.46 9.37-4.12 13.5-5.9 4.12-1.78 9.52-4.17 12-5.3 2.47-1.13 9.9-4.41 16.5-7.28 6.6-2.87 12.45-5.54 13-5.94 0.55-0.4 3.7-1.72 7-2.94 3.3-1.22 6.45-2.58 7-3.02 0.55-0.44 3.47-1.82 6.5-3.07 3.02-1.25 10-4.4 15.5-6.99 5.5-2.59 10.67-4.96 11.5-5.26 0.82-0.31-1.31-0.59-4.75-0.63-4.85-0.06-6.7-0.53-8.25-2.08-1.1-1.1-3.91-5.66-6.25-10.14-2.34-4.48-5.3-10.22-6.58-12.75-1.28-2.54-3.34-6.18-4.58-8.11-1.25-1.92-6.25-10.7-11.12-19.5-4.87-8.8-11.08-20.05-13.79-25-2.72-4.95-5.97-10.92-7.22-13.27l-2.27-4.28z"/>
		<path id="Path 25" class="s1" d="m305 653.94c-1.38 0.42-5.88 1.11-10 1.52-5.17 0.52-8.74 0.37-11.5-0.5-2.96-0.92-4.07-0.95-4.25-0.1-0.15 0.7-2.63 1.15-6.5 1.16-3.44 0-6.93 0.44-7.75 0.96-1.25 0.79-1.5 4.05-1.47 19.23 0.01 10.06 0.35 19.98 0.75 22.04 0.64 3.34 1.13 3.83 4.47 4.5 2.06 0.41 15.9 0.74 30.75 0.73 25.05-0.02 27.52-0.19 34.25-2.25 3.99-1.23 8.66-3.47 10.39-4.98 1.72-1.51 3.93-4.33 4.91-6.25 0.98-1.93 2.09-5.75 2.47-8.5 0.4-2.98 0.2-6.82-0.51-9.5-0.66-2.48-2.28-5.96-3.6-7.75-1.33-1.79-4.55-4.48-7.16-5.98-2.61-1.5-7.45-3.29-10.75-3.98-3.3-0.69-9.6-1.22-14-1.18-4.4 0.03-9.13 0.41-10.5 0.83z"/>
		<path id="Path 27" class="s14" d="m583.87 359c-1.3 0.38-3.27 1.17-4.37 1.77-1.1 0.6-13.25 6.02-27 12.05-13.75 6.03-30.4 13.32-37 16.21-6.6 2.89-21 9.27-32 14.2-11 4.92-23.83 10.65-28.5 12.74-4.67 2.09-15.25 6.82-23.5 10.52-8.25 3.69-19.5 8.73-25 11.2-5.5 2.46-13.38 5.99-17.5 7.83-4.13 1.85-17.4 7.71-29.5 13.02-12.1 5.32-26.27 11.6-31.5 13.95-5.23 2.36-13.32 5.98-18 8.03-4.68 2.06-11.76 5.26-15.75 7.11-3.99 1.85-7.48 3.37-7.75 3.37-0.27 0-3.09 1.17-6.25 2.6-3.16 1.43-11.38 5.06-18.25 8.05-6.88 3-15.88 6.96-20 8.82-4.13 1.85-9.52 4.26-12 5.36-2.48 1.09-13.84 6.07-25.25 11.08-11.41 5-20.98 9.09-21.25 9.09-0.27 0-5.79 2.5-12.25 5.56-8.06 3.82-11.28 5.8-10.25 6.31 0.82 0.41 35.25 0.49 76.5 0.18l75-0.56c10.85-4.91 18.05-8.01 23-10.04 4.95-2.03 12.6-5.19 17-7.01 4.4-1.83 16.33-6.75 26.5-10.95 10.17-4.19 21.65-8.92 25.5-10.51 3.85-1.59 14.2-5.91 23-9.58 8.8-3.68 19.6-8.15 24-9.94 4.4-1.78 14.52-5.93 22.5-9.22 7.98-3.29 21.7-9.01 30.5-12.7 8.8-3.7 19.83-8.32 24.5-10.28 4.67-1.96 10.22-3.61 12.33-3.66 3.13-0.08 4.33 0.48 6.5 3.04 1.47 1.72 4.25 5.97 6.17 9.43 1.92 3.46 5.24 9.25 7.37 12.86 2.12 3.62 7.04 11.97 10.92 18.57 3.88 6.6 8.71 14.7 10.73 18 2.01 3.3 5.6 9.37 7.98 13.5 2.37 4.12 5.95 9.98 7.96 13l3.64 5.5c74.68 0.4 96.83 0.18 97.4-0.24 0.64-0.48-2.19-6.19-7.57-15.26-4.73-7.98-9.63-16.08-10.88-18-1.25-1.92-19.73-32.75-41.06-68.5-21.33-35.75-40.62-68.02-42.88-71.7-2.26-3.69-5.24-8.53-6.61-10.76-1.38-2.24-3.01-4.21-3.63-4.39-0.62-0.19-2.2-0.03-3.5 0.35z"/>
		<path id="Path 28" class="s3" d="m389.33 24.37c-1.55 1.3-5.48 7.27-8.72 13.25-3.24 5.98-6.9 12.23-8.14 13.88-1.23 1.65-3.47 5.47-4.97 8.5-1.49 3.03-5.48 10.11-8.86 15.74-3.38 5.63-6.6 11.03-7.15 12-0.56 0.97-3.23 5.81-5.94 10.76-2.7 4.95-7.17 12.6-9.92 17-2.75 4.4-6.53 10.92-8.4 14.5-1.87 3.57-5.17 9.09-7.32 12.25-2.15 3.16-5.29 8.79-6.98 12.5-1.69 3.71-5.27 9.68-7.96 13.25-2.7 3.57-4.91 6.84-4.93 7.25-0.02 0.41-1.84 4.35-4.04 8.75-2.2 4.4-6.56 11.94-9.69 16.75-3.12 4.81-7.46 12.35-9.63 16.75-2.17 4.4-5.62 10.47-7.66 13.5-2.05 3.03-6.32 10.45-9.5 16.5-3.17 6.05-8.49 15.05-11.81 20-3.32 4.95-8.61 14.18-11.75 20.5-3.14 6.32-7.74 14.43-10.22 18-2.48 3.57-7 11.45-10.05 17.5-3.05 6.05-7.59 13.7-10.09 17-2.5 3.3-6.65 10.05-9.23 15-2.58 4.95-7.85 14.62-11.71 21.5-3.86 6.87-8.13 14.52-9.51 17-1.37 2.48-6.75 11.7-11.96 20.5-5.21 8.8-10.7 17.8-12.2 20-1.5 2.2-4.64 7.82-6.97 12.5-2.33 4.68-6.07 10.98-8.31 14-2.24 3.02-5.38 8.43-6.98 12-1.59 3.57-4.94 9.43-7.44 13-2.5 3.57-6.12 9.65-8.05 13.5-3.24 6.46-3.54 7.85-3.93 18l-0.42 11c5.94-10.26 7.13-13.74 7.57-18 0.45-4.44 1.47-7.3 3.91-11 1.82-2.75 6.23-9.95 9.82-16 3.58-6.05 9.79-16.63 13.79-23.5 4.01-6.88 10.14-17.23 13.63-23 3.49-5.77 13.27-22.65 21.74-37.5 8.46-14.85 17.62-31.05 20.35-36 2.73-4.95 7.67-13.27 10.98-18.5 3.31-5.23 7.95-13.1 10.32-17.5 2.37-4.4 5.89-10.48 7.82-13.5 1.93-3.02 6.4-10.9 9.94-17.5 3.53-6.6 10.14-18.07 14.68-25.5 4.54-7.43 12.88-21.82 18.54-32 5.66-10.18 13.54-23.9 17.51-30.5 3.98-6.6 8.48-14.47 10.01-17.5 1.54-3.03 3.79-7.07 5.01-9 1.22-1.93 5.96-10.03 10.53-18 4.57-7.97 14.45-25.07 21.97-38 7.51-12.93 17.04-29.35 21.16-36.5 4.13-7.15 12.19-21.29 17.92-31.42 6.88-12.16 11.94-19.9 14.91-22.79 2.48-2.4 6.2-6.04 8.29-8.08l3.78-3.71c3.43 4.58 4.88 6.28 5.43 6.72 0.55 0.44 2.13 1.63 3.5 2.65 1.38 1.01 4.12 4.27 6.11 7.23 1.98 2.97 6.43 10.57 9.88 16.9 3.46 6.33 8.85 15.78 12 21 3.14 5.22 8.17 13.78 11.18 19 3 5.22 8.14 14.22 11.4 19.99 3.26 5.77 6.61 11.66 7.43 13.08 0.83 1.43 3.7 6.6 6.39 11.51 2.69 4.91 7.84 13.87 11.46 19.92 3.61 6.05 9.54 16.63 13.18 23.5 3.64 6.88 10.36 19.25 14.93 27.5 4.58 8.25 10.47 18.38 13.1 22.5 2.63 4.13 7.29 12.11 10.36 17.75 3.07 5.64 5.58 10.48 5.58 10.75 0 0.27 4.78 8.49 10.62 18.25 5.84 9.76 11.87 20.23 13.41 23.25 1.91 3.77 2.89 7.39 3.1 11.5l0.32 6c-8.3 7.75-12.11 10.97-13.83 12.15-1.71 1.18-9.2 4.71-16.62 7.84-7.42 3.13-22.72 9.81-34 14.85-20.17 9-20.61 9.15-27.5 8.89-5.76-0.21-7.69-0.74-10.91-2.99-2.15-1.51-5.58-4.99-7.62-7.74-2.05-2.75-6.42-9.95-9.73-16-3.31-6.05-8.93-16.4-12.5-23-3.56-6.6-11.45-20.77-17.53-31.5-6.08-10.73-12.1-20.31-13.38-21.31-1.85-1.43-3.05-1.63-5.83-0.94-2.37 0.59-4.42 2.15-6.33 4.81-1.56 2.17-8.58 14.06-15.59 26.44-7.01 12.37-16.65 30.04-21.42 39.25-4.76 9.21-11.64 21.59-15.29 27.5-3.64 5.91-10.68 18.4-15.63 27.75-4.95 9.35-11.34 21.05-14.2 26-2.87 4.95-7.19 12.37-9.62 16.49-2.54 4.3-7.82 10.89-12.42 15.5-7.05 7.06-9.78 8.94-23 15.87-8.25 4.32-18.37 9.2-22.5 10.84-4.12 1.64-15.6 6.95-25.5 11.79-9.9 4.84-26.1 12.73-36 17.54-9.9 4.8-21.37 10.18-25.5 11.96-4.12 1.77-10.65 4.82-14.5 6.77-3.85 1.94-9.25 3.97-12 4.5-2.75 0.53-6.12 0.76-7.5 0.5-1.4-0.26-4.84 0.58-7.79 1.89-2.91 1.29-5.27 2.69-5.25 3.1 0.02 0.41 1.73 1.04 3.79 1.39 2.06 0.35 7.13 0.36 11.25 0.01 4.13-0.34 10.2-1.54 13.5-2.67 3.3-1.13 8.93-3.81 12.5-5.97 3.58-2.16 9.65-5.08 13.5-6.49 3.85-1.41 8.8-3.33 11-4.25 2.2-0.92 6.48-3.32 9.5-5.32 3.03-2.01 6.63-4.24 8-4.96 1.38-0.73 7-2.95 12.5-4.93 5.5-1.99 14.05-6.04 19-9.01 4.95-2.96 15.53-8.05 23.5-11.31 7.98-3.26 15.85-6.62 17.5-7.47 1.65-0.85 4.8-2.8 7-4.32 2.2-1.52 7.36-4.04 11.48-5.61 4.41-1.67 8.71-4.12 10.5-5.97 1.66-1.71 4.32-5.54 5.91-8.5 1.59-2.95 4.54-7.62 6.56-10.37 2.02-2.75 6.3-9.95 9.51-16 3.21-6.05 7.96-15.05 10.56-20 2.59-4.95 7.3-13.73 10.47-19.5 3.17-5.77 7.45-12.98 9.52-16 2.07-3.02 6.96-11.8 10.87-19.5 3.91-7.7 9.93-19.18 13.39-25.5 3.46-6.32 7.82-13.75 9.7-16.5 1.88-2.75 4.83-8.15 6.57-12 1.73-3.85 4.45-8.93 6.05-11.3 1.96-2.89 4.05-4.65 6.41-5.38 3.15-0.97 3.7-0.84 5.51 1.3 1.11 1.31 4.33 6.65 7.15 11.88 2.83 5.23 8.4 14.9 12.38 21.5 3.98 6.6 9.4 16.5 12.05 22 2.66 5.5 7.61 14.73 11.01 20.5 3.4 5.77 7.35 12.25 8.79 14.4 1.44 2.14 3.51 4.51 4.61 5.26 1.1 0.74 6.05 1.64 11 1.99 8 0.57 9.56 0.39 14-1.61 2.75-1.24 9.5-3.8 15-5.69 5.5-1.89 12.48-5.01 15.5-6.92 3.03-1.92 9.78-4.85 15-6.52 5.23-1.67 13.1-4.96 17.5-7.32 4.4-2.36 10.48-5.14 13.5-6.16 3.03-1.03 6.74-3.12 8.25-4.65 1.51-1.53 3.2-4.47 3.74-6.53 0.55-2.06 1-6.79 1-10.5 0.01-5.17-0.56-7.86-2.41-11.5-1.33-2.61-3.47-6.14-4.75-7.83-1.28-1.69-3.65-6.19-5.27-10-1.62-3.81-4.58-9.17-6.59-11.92-2.01-2.75-5.67-8.37-8.14-12.5-2.47-4.12-5.56-10.2-6.87-13.5-1.31-3.3-6.04-11.62-10.51-18.5-4.48-6.87-10.23-16.78-12.78-22-2.56-5.22-7.19-13.32-10.3-18-3.12-4.68-7.22-12.32-9.12-17-1.9-4.68-5.6-11.43-8.23-15-2.64-3.57-7.15-11.22-10.04-17-2.89-5.78-7.04-13.2-9.22-16.5-2.19-3.3-5.31-8.92-6.94-12.5-1.63-3.58-4.46-8.53-6.29-11-1.83-2.47-4.86-7.65-6.73-11.5-1.88-3.85-5.03-9.25-7-12-1.97-2.75-5.71-8.83-8.32-13.5-2.61-4.67-8.17-14.79-12.36-22.48-4.19-7.69-9.08-15.45-10.87-17.25l-3.25-3.27c-19.91 0-21.08 0.21-23.67 2.37zm-211.83 524.35c1.65 0.22 4.8 0.22 7 0.01 2.2-0.22 0.85-0.4-3-0.4-3.85-0.01-5.65 0.17-4 0.39zm508.5 0.01c1.92 0.21 5.3 0.21 7.5 0 2.2-0.22 0.63-0.39-3.5-0.39-4.12 0-5.92 0.17-4 0.39zm-412.5 103.96c-2.75 0.18-6.01 0.55-7.25 0.82-1.24 0.27-2.25 1.05-2.25 1.74 0 0.92 1.92 1.15 7.25 0.88 3.99-0.2 7.48-0.8 7.75-1.32 0.31-0.58 2.05-0.48 4.5 0.24 3.09 0.91 6.15 0.9 13.5-0.06 5.23-0.68 11.98-1.56 15-1.96 3.51-0.47-1.55-0.72-14-0.7-10.72 0.02-21.75 0.18-24.5 0.36zm77.64 31.06c-0.08 1.24-1 3.94-2.04 6-1.05 2.06-2.96 4.75-4.25 5.98-1.29 1.22-4.6 3.15-7.35 4.29-3.08 1.27-3.85 1.83-2 1.47 1.65-0.33 5-1.81 7.44-3.29 2.86-1.74 5.28-4.3 6.81-7.2 1.35-2.57 2.19-5.57 1.95-7-0.39-2.29-0.44-2.31-0.56-0.25zm-87.99 10c-0.13 6.49 0.09 7.41 2.1 8.76 1.41 0.95 4.29 1.45 7.75 1.36l5.5-0.14c-9.53-0.95-12.68-1.61-13.15-2.07-0.47-0.46-1.12-4.06-1.45-8l-0.61-7.16z"/>
		<path id="Path 29" class="s15" d="m400.18 28.75c-1.06 1.51-4.98 8.15-8.7 14.75-3.72 6.6-8.43 14.92-10.46 18.5-2.03 3.58-8.56 14.83-14.51 25-5.94 10.17-12.6 21.65-14.79 25.5-2.19 3.85-4.68 8.35-5.54 10-0.85 1.65-3.04 5.36-4.87 8.25-1.82 2.89-3.29 5.59-3.28 6 0.02 0.41-0.8 1.88-1.84 3.25-1.03 1.38-3.24 4.97-4.91 8-1.67 3.03-8.12 14.28-14.32 25-6.2 10.72-12.84 22.2-14.76 25.5-1.92 3.3-4.18 7.35-5.03 9-0.85 1.65-3.03 5.36-4.86 8.25-1.82 2.89-3.31 5.59-3.31 6 0.01 0.41-1.49 3-3.32 5.75-1.84 2.75-4.02 6.35-4.86 8-0.84 1.65-6.71 12-13.04 23-6.33 11-14.64 25.4-18.46 32-3.82 6.6-10.48 18.07-14.8 25.5-4.31 7.43-8.95 15.52-10.31 18-1.36 2.48-2.83 4.95-3.26 5.5-0.43 0.55-2.33 3.7-4.22 7-1.9 3.3-8.29 14.32-14.22 24.5-5.92 10.18-15.06 25.93-20.3 35-5.25 9.07-11.77 20.32-14.48 25-2.72 4.68-6.29 10.98-7.94 14-1.65 3.02-3.36 5.95-3.79 6.5-0.43 0.55-1.67 2.57-2.74 4.5-1.08 1.93-5.01 8.68-8.73 15-3.72 6.32-9.26 15.77-12.31 21-3.06 5.23-9.08 15.46-13.39 22.75-4.3 7.29-7.6 13.59-7.32 14 0.27 0.41 5.11-1.46 10.75-4.15 5.63-2.7 14.52-6.9 19.74-9.35 5.22-2.45 12.43-5.81 16-7.47 3.57-1.67 12.13-5.73 19-9.04 6.88-3.31 23.3-11.08 36.5-17.27 13.2-6.19 33-15.58 44-20.86 11-5.29 22.89-11.07 26.43-12.86 3.54-1.79 6.79-3.93 7.23-4.75 0.44-0.82 2.23-3.98 3.98-7 1.75-3.02 6.34-11.13 10.19-18 3.85-6.88 10.15-18.13 13.98-25 3.84-6.88 10.23-18.35 14.2-25.5 3.97-7.15 9.47-17.05 12.22-22 2.75-4.95 9.17-16.43 14.26-25.5 5.09-9.07 12.63-22.57 16.76-30 4.14-7.43 8.99-16.2 10.79-19.5 1.8-3.3 5.46-9.88 8.12-14.63 2.66-4.74 5.57-9.69 6.45-11 1.26-1.85 1.92-2.12 3-1.23 0.77 0.62 2.8 3.77 4.52 7 1.72 3.22 9.55 17.34 17.39 31.36 7.84 14.02 17.64 31.57 21.77 39 4.14 7.43 10.94 19.75 15.11 27.38 4.18 7.63 8.35 14.38 9.27 15 1.33 0.9 4.16-0.02 14.25-4.63 6.92-3.16 12.81-5.75 13.08-5.75 0.27 0 5.11-2.05 10.75-4.56 5.64-2.5 11.6-5.16 13.25-5.9 1.65-0.74 8.63-3.8 15.5-6.79 6.88-2.99 16.1-6.95 20.5-8.79 4.4-1.84 8.67-3.94 9.5-4.66 1.33-1.16 1.28-1.68-0.39-4.55-1.04-1.79-4.24-7.3-7.11-12.25-2.88-4.95-8.96-15.52-13.53-23.5-4.56-7.98-10.03-17.54-12.14-21.25-2.1-3.71-5.68-10.01-7.94-14-2.26-3.99-5.11-9.05-6.34-11.25-1.22-2.2-3.14-5.57-4.25-7.5-1.12-1.93-5.86-10.25-10.54-18.5-4.68-8.25-19.54-34.35-33.01-58-13.47-23.65-26.51-46.6-28.96-51-2.46-4.4-7.17-12.72-10.47-18.5-3.31-5.78-9.16-16.13-13.02-23-3.86-6.88-9.55-17.11-12.66-22.75-3.1-5.64-6.06-10.25-6.58-10.25-0.52 0-1.81 1.24-2.88 2.75z"/>
		<path id="Path 30" class="s4" d="m209.5 547.75c15.95 0.15 42.28 0.15 58.5 0 16.23-0.16 3.18-0.28-29-0.28-32.18 0-45.45 0.12-29.5 0.28zm418.5 0c12.38 0.16 32.85 0.16 45.5 0 12.65-0.16 2.52-0.29-22.5-0.29-25.02 0-35.38 0.13-23 0.29zm-366.6 134.25c0 8.52 0.16 11.9 0.34 7.5 0.19-4.4 0.19-11.38 0-15.5-0.18-4.13-0.34-0.52-0.34 8z"/>
		<path id="Path 31" class="s5" d="m394.26 31.92c-1.78 1.05-4.32 3.41-5.65 5.24-1.33 1.84-8.62 14.14-16.2 27.34-7.57 13.2-16.31 28.5-19.41 34-3.1 5.5-11.05 19.22-17.65 30.5-6.6 11.28-15.74 27.03-20.31 35-4.57 7.97-9.31 16.07-10.53 18-1.22 1.93-3.47 5.97-5.01 9-1.53 3.03-6.03 10.9-10.01 17.5-3.97 6.6-11.85 20.32-17.51 30.5-5.66 10.18-14 24.57-18.54 32-4.54 7.43-11.15 18.9-14.68 25.5-3.54 6.6-8.01 14.48-9.94 17.5-1.93 3.02-5.45 9.1-7.82 13.5-2.37 4.4-7.01 12.27-10.32 17.5-3.31 5.23-8.25 13.55-10.98 18.5-2.73 4.95-11.89 21.15-20.35 36-8.47 14.85-18.25 31.73-21.74 37.5-3.49 5.77-9.62 16.13-13.63 23-4 6.87-10.21 17.45-13.79 23.5-3.59 6.05-8 13.25-9.8 16-2.4 3.65-3.46 6.62-3.93 11l-0.64 6c11.14-18.6 16.21-27.15 18.44-31 2.24-3.85 5.27-9.02 6.75-11.5 1.47-2.48 6.51-11.02 11.19-19 4.69-7.98 10.99-18.77 14.02-24 3.02-5.23 9-15.57 13.29-23 4.28-7.43 10.8-18.68 14.48-25 3.69-6.32 8.23-14.12 10.1-17.31 1.88-3.2 4.37-7.47 5.54-9.5 1.17-2.03 6.75-11.57 12.39-21.19 5.64-9.63 18.6-31.9 28.8-49.5 10.2-17.6 20.3-35.15 22.44-39 2.14-3.85 5.58-9.93 7.64-13.5 2.07-3.57 7.14-12.35 11.28-19.5 4.14-7.15 8.66-15.03 10.05-17.5 1.39-2.47 5.81-10.13 9.82-17 4.01-6.88 8.94-15.43 10.97-19 2.02-3.57 5.25-9.2 7.17-12.5 1.92-3.3 6.05-10.5 9.18-16 3.14-5.5 6.22-10.9 6.86-12 0.64-1.1 7.68-13.25 15.64-27 7.96-13.75 16.01-27.7 17.88-31 1.87-3.3 5.39-9.38 7.82-13.5 2.43-4.13 4.97-8.63 5.63-10 0.66-1.38 2.01-3.74 2.99-5.25 0.99-1.51 1.68-2.75 1.55-2.75-0.13 0.01-1.7 0.87-3.48 1.92zm15.28 1.24c0.37 1.29 1.39 3.46 2.26 4.84 0.88 1.37 3.25 5.42 5.27 9 2.02 3.58 6.56 11.67 10.1 18 3.53 6.33 9.04 16 12.24 21.5 3.19 5.5 11.67 20.35 18.83 33 7.17 12.65 15.83 27.95 19.24 34 3.42 6.05 16.47 29 29 51 12.53 22 27.41 48.1 33.06 58 5.65 9.9 13.53 23.63 17.51 30.5 3.98 6.87 8.36 14.52 9.74 17 1.38 2.48 3.12 5.4 3.86 6.5 1.27 1.85 1.36 1.73 1.36-1.75-0.01-2.12-1.26-6.25-2.89-9.5-1.59-3.16-7.66-13.74-13.5-23.5-5.84-9.76-10.62-17.98-10.62-18.25 0-0.27-2.51-5.11-5.58-10.75-3.07-5.64-7.73-13.63-10.36-17.75-2.63-4.13-8.52-14.25-13.1-22.5-4.57-8.25-11.29-20.63-14.93-27.5-3.64-6.88-9.57-17.45-13.18-23.5-3.62-6.05-8.77-15.01-11.46-19.92-2.69-4.91-5.57-10.08-6.39-11.51-0.82-1.42-4.17-7.31-7.43-13.08-3.26-5.77-8.4-14.77-11.41-19.99-3.01-5.22-7.52-12.88-10.01-17-2.5-4.13-8.01-13.8-12.25-21.5-4.24-7.7-9.56-16.59-11.81-19.75-2.25-3.16-5.02-6.24-6.15-6.84-1.87-0.98-2-0.85-1.4 1.25zm-7.23 213.53c-1.12 1.54-3.72 5.96-5.78 9.81-2.06 3.85-6.47 11.95-9.78 18-3.32 6.05-11.54 20.9-18.26 33-6.73 12.1-14.55 26.05-17.39 31-2.83 4.95-5.14 9.11-5.13 9.25 0.02 0.14-1.49 2.84-3.35 6-1.86 3.16-9.58 17-17.15 30.75-7.57 13.75-14.87 27.02-16.22 29.5-1.35 2.48-5.74 10.35-9.75 17.5-4.02 7.15-7.91 13.52-8.65 14.16-0.74 0.63-13.95 7.21-29.35 14.62-15.4 7.4-32.95 15.83-39 18.72-6.05 2.89-30.46 14.42-54.25 25.63-23.79 11.2-43.81 20.41-44.5 20.46-0.69 0.04-0.12 0.44 1.25 0.87 1.38 0.44 4.97 0.36 8-0.18 3.03-0.54 8.65-2.58 12.5-4.52 3.85-1.95 10.38-5 14.5-6.77 4.13-1.78 15.6-7.16 25.5-11.96 9.9-4.81 26.1-12.7 36-17.54 9.9-4.84 21.38-10.15 25.5-11.79 4.13-1.64 14.25-6.52 22.5-10.84 13.22-6.93 15.95-8.81 23-15.87 4.6-4.61 9.88-11.2 12.42-15.5 2.43-4.12 6.75-11.54 9.62-16.49 2.86-4.95 9.25-16.65 14.2-26 4.95-9.35 11.99-21.84 15.63-27.75 3.65-5.91 10.53-18.29 15.29-27.5 4.77-9.21 14.41-26.87 21.42-39.25 7.01-12.37 14.03-24.27 15.59-26.44 1.91-2.66 3.96-4.22 6.33-4.81 2.78-0.69 3.98-0.49 5.83 0.94 1.28 1 7.3 10.58 13.38 21.31 6.08 10.73 13.97 24.9 17.53 31.5 3.57 6.6 9.19 16.95 12.51 23 3.32 6.05 7.65 13.2 9.64 15.9 1.99 2.69 4.94 5.84 6.57 7l2.96 2.1c-3.98-6.98-6.87-12.15-8.99-16-2.12-3.85-4.59-8.35-5.49-10-0.89-1.65-5-9.07-9.12-16.5-4.12-7.43-14.17-25.43-22.32-40-8.15-14.57-15.71-28.3-16.79-30.5-1.09-2.2-2.51-4.82-3.17-5.81-1.11-1.69-1.33-1.63-3.23 1zm159.69 81.2c-3.58 1.56-13.02 5.66-21 9.11-7.98 3.45-18.1 7.83-22.5 9.74-4.4 1.91-11.37 4.93-15.5 6.71-4.12 1.79-12.16 5.23-17.86 7.65l-10.36 4.4c6.76 1.19 9.85 1.27 11.22 0.95 1.38-0.32 11.5-4.57 22.5-9.43 11-4.86 26.08-11.4 33.5-14.53 7.42-3.12 15.3-6.94 17.5-8.49 2.2-1.54 5.32-4.2 6.92-5.9 1.61-1.71 2.74-3.09 2.5-3.07-0.23 0.01-3.34 1.3-6.92 2.86z"/>
		<path id="Path 32" class="s10" d="m262.39 671c0 6.88 0.16 9.58 0.35 6 0.2-3.58 0.2-9.2 0-12.5-0.19-3.3-0.35-0.38-0.35 6.5zm-0.05 21c0 4.13 0.17 5.92 0.39 4 0.21-1.92 0.21-5.3 0-7.5-0.22-2.2-0.39-0.63-0.39 3.5z"/>
		<path id="Path 34" class="s7" d="m282.5 705.75c7.15 0.17 18.63 0.17 25.5 0 6.88-0.17 1.02-0.32-13-0.32-14.02 0-19.65 0.15-12.5 0.32z"/>
		<path id="Path 35" class="s11" d="m229 546.75c11.82 0.16 30.73 0.16 42 0 11.27-0.16 1.6-0.29-21.5-0.29-23.1 0-32.32 0.13-20.5 0.29zm401.5 0c13.2 0.16 34.35 0.16 47 0 12.65-0.16 1.85-0.29-24-0.29-25.85 0-36.2 0.13-23 0.29z"/>
		<path id="Path 37" class="s13" d="m280 651.75c7.98 0.17 20.57 0.17 28 0 7.43-0.17 0.9-0.31-14.5-0.31-15.4 0-21.48 0.14-13.5 0.31z"/>
		<path id="Path 38" class="s0" d="m280.5 670.57c-1.15 1.1-1.62 3.2-1.57 7 0.04 2.99 0.52 6.33 1.07 7.43 0.93 1.86 2 2 15.25 1.99 7.84 0 17.18-0.51 20.75-1.13 3.57-0.61 8.07-1.89 10-2.84 1.93-0.95 3.84-2.47 4.25-3.38 0.49-1.06 0.14-2.1-1-2.95-0.96-0.72-3.1-2.14-4.75-3.14-1.65-1.01-5.93-2.43-9.5-3.17-3.57-0.74-12.43-1.35-19.68-1.36-10.63-0.02-13.49 0.28-14.82 1.55z"/>
		<path id="Path 39" class="s16" d="m387.03 60.5c-8.39 14.85-16.28 28.58-17.54 30.5-1.25 1.92-3.43 5.53-4.83 8-1.41 2.47-3.98 6.97-5.72 10-1.74 3.03-4.51 7.97-6.15 11-1.63 3.03-3.83 6.74-4.88 8.25-1.05 1.51-1.91 3.09-1.91 3.5 0 0.41-1.8 3.45-4 6.75-2.2 3.3-3.98 6.22-3.97 6.5 0.01 0.28-2.17 4.32-4.86 9-2.68 4.68-6.3 10.97-8.04 14-1.74 3.03-3.59 6.18-4.1 7-0.52 0.82-2.48 4.2-4.37 7.5-1.88 3.3-6.69 11.63-10.68 18.5-4 6.88-8.39 14.53-9.78 17-1.38 2.47-3.57 6.07-4.86 8-1.29 1.93-2.35 3.84-2.34 4.25 0 0.41-1.79 3.56-3.97 7-2.19 3.44-3.99 6.59-4 7-0.02 0.41-0.88 1.99-1.92 3.5-1.04 1.51-2.99 4.78-4.32 7.25-1.33 2.48-4.56 8.1-7.17 12.5-2.61 4.4-5.16 8.68-5.66 9.5-0.49 0.82-2.72 4.54-4.93 8.25-2.22 3.71-3.96 6.91-3.88 7.11 0.08 0.19-2.1 4.13-4.85 8.75-2.76 4.61-7.61 12.89-10.79 18.39-3.19 5.5-9.17 15.85-13.29 23-4.13 7.15-10.82 18.51-14.86 25.25-4.05 6.74-7.37 12.59-7.39 13-0.01 0.41-0.62 1.43-1.35 2.25-0.73 0.82-2.61 3.98-4.18 7-1.57 3.02-3.61 6.62-4.52 8-0.91 1.37-7.16 12.18-13.9 24-6.73 11.82-13.24 23.07-14.47 25-1.23 1.93-4.17 6.87-6.54 11-2.37 4.12-5.81 9.86-7.66 12.75-1.84 2.89-3.35 5.48-3.35 5.75 0 0.27-1.59 3.31-3.54 6.75-1.94 3.44-3.29 6.36-3 6.5 0.3 0.14 1.59-1.44 2.88-3.5 1.29-2.06 4.17-6.68 6.39-10.25 2.22-3.57 6.68-10.96 9.91-16.4 3.22-5.45 7.21-12.26 8.86-15.14 1.65-2.89 4.61-8.1 6.58-11.6 1.97-3.5 5.3-9.29 7.4-12.86 2.09-3.57 5.29-8.98 7.09-12 1.81-3.02 4.59-7.75 6.19-10.5 1.6-2.75 6.42-11.07 10.72-18.5 4.3-7.43 9.32-16.09 11.17-19.25 1.84-3.16 4.85-8.34 6.69-11.5 1.84-3.16 5.72-9.8 8.61-14.75 2.9-4.95 6.1-10.35 7.11-12 1.01-1.65 2.46-4.13 3.22-5.5 0.77-1.38 2.31-4.07 3.43-6 1.13-1.93 3.71-6.43 5.74-10 2.03-3.57 4.12-6.95 4.64-7.5q0.94-0.99 0.93 0.25c-0.01 0.69-2.69 6.76-5.95 13.5-3.25 6.74-7.64 14.57-9.75 17.4-2.1 2.83-5.76 8.23-8.12 12-2.37 3.77-7.68 13.6-11.81 21.85-4.12 8.25-8.93 17.54-10.69 20.64-1.76 3.1-3.71 6.25-4.34 7-0.63 0.75-3.12 4.29-5.53 7.86-2.41 3.57-6.28 9.76-8.61 13.75-2.32 3.99-5.99 10.29-8.15 14-2.16 3.71-4.75 8.45-5.75 10.52-1 2.08-2.16 3.76-2.57 3.75-0.41-0.01-0.75 0.43-0.75 0.98 0 0.55-1.71 3.59-3.8 6.75-2.1 3.16-5 8.45-6.45 11.75-1.46 3.3-3.12 8.36-3.7 11.25-0.58 2.89-1.5 5.48-2.05 5.75-0.55 0.27-1 1.85-1 3.5 0 2.03-1.12 4.21-3.46 6.75-1.9 2.06-3.48 4.09-3.5 4.5-0.02 0.41 1.65 1.48 3.71 2.37 3.73 1.61 3.8 1.6 10.75-2.03 3.85-2.01 9.25-3.99 12-4.39 2.75-0.41 6.13-1.45 7.5-2.3 1.38-0.85 7.9-3.26 14.5-5.36 6.6-2.09 14.93-5.27 18.5-7.06 3.58-1.8 12.01-5.79 18.75-8.87 6.74-3.09 12.48-5.61 12.75-5.61 0.28 0 7.36-3.63 15.75-8.06 8.39-4.43 16.96-9.71 19.05-11.75 2.08-2.03 5.19-6.17 6.91-9.19 1.71-3.02 6.57-12.25 10.81-20.5 4.23-8.25 11.97-22.43 17.19-31.5 5.22-9.07 13.53-24.6 18.46-34.5 4.93-9.9 11.19-21.38 13.92-25.5 2.72-4.13 7.36-12.45 10.31-18.5 2.95-6.05 7.83-15.95 10.85-22 3.02-6.05 6.69-12.35 8.15-14 1.51-1.7 3.91-6.89 5.55-12 1.59-4.95 3.49-10.24 4.22-11.75 1.15-2.39 1.76-2.68 4.58-2.19 1.79 0.32 5.16 0.77 7.5 1 2.38 0.25 4.03 0.88 3.75 1.44-0.27 0.55 0.96 0.1 2.75-1 1.79-1.09 3.7-2.01 4.25-2.03 0.55-0.02 1.77 1.89 2.7 4.25 0.94 2.35 1.99 5.63 2.33 7.28 0.35 1.65 1.58 5.47 2.74 8.5 1.15 3.03 3.07 7.07 4.26 9 1.18 1.93 3.42 5.75 4.96 8.5 1.55 2.75 4.17 7.48 5.82 10.5 1.65 3.02 5.4 10.23 8.32 16 2.93 5.77 5.32 10.95 5.32 11.5 0.01 0.55-0.87-0.13-1.95-1.5-1.08-1.38-1.97-2.84-1.98-3.25-0.01-0.41-2.06-4.24-4.54-8.5-2.49-4.26-4.96-8.43-5.5-9.25-0.53-0.82-2.55-4.43-4.5-8-1.94-3.57-4.69-8.52-6.11-11-1.42-2.48-5.77-9.9-9.66-16.5-3.9-6.6-7.23-12.22-7.4-12.5-0.17-0.28-0.53-0.28-0.79 0-0.27 0.28 0.75 2.85 2.25 5.72 1.5 2.87 5.91 10.97 9.8 18 3.88 7.03 14.16 25.6 22.85 41.28 8.68 15.68 19.33 34.69 23.68 42.25 4.34 7.56 7.9 14.2 7.9 14.75 0 0.55 0.9 1 2 1 1.1 0 2.23-0.45 2.5-1 0.27-0.55 2.64-1.75 5.25-2.66 2.61-0.91 9.93-3.86 16.25-6.54 6.33-2.69 13.3-5.75 15.5-6.8 2.2-1.06 9.4-3.98 16-6.5 6.6-2.52 16.84-6.93 22.75-9.79 5.91-2.87 10.73-5.66 10.72-6.21-0.02-0.55-1.95-4.82-4.28-9.5-2.34-4.68-8-14.57-12.58-22-4.57-7.43-9.56-15.75-11.08-18.5-1.52-2.75-4.55-8.15-6.74-12-2.19-3.85-7.08-12.3-10.88-18.77-3.8-6.47-8.88-15.25-11.28-19.5-2.41-4.25-5.49-9.76-6.86-12.23-1.37-2.48-3.28-5.63-4.26-7-0.98-1.38-2.5-4.07-3.39-6-0.88-1.93-3.6-6.88-6.04-11-2.44-4.13-5.97-10.2-7.85-13.5-1.89-3.3-4.56-8.03-5.94-10.5-1.38-2.48-3.46-6.07-4.62-8-1.16-1.93-2.8-4.85-3.63-6.5-0.84-1.65-3.52-6.38-5.96-10.5-2.44-4.13-6.2-10.65-8.35-14.5-2.15-3.85-5.06-9.03-6.46-11.5-1.4-2.48-4.33-7.65-6.51-11.5-2.18-3.85-5.65-9.93-7.73-13.5-2.07-3.58-5.34-9.43-7.27-13-1.93-3.58-3.87-6.95-4.3-7.5-0.43-0.55-2.4-3.93-4.37-7.5-1.97-3.58-4.72-8.75-6.11-11.5-1.39-2.75-3.35-6.13-4.36-7.5l-1.83-2.5zm7.72 183.75c-2.5 4.54-7.45 13.43-11 19.75-3.55 6.32-9.51 16.9-13.24 23.5-3.74 6.6-10.17 18.07-14.3 25.5-4.13 7.43-10.75 19.35-14.71 26.5-3.96 7.15-10.58 19.07-14.7 26.5-4.12 7.43-11.23 20.25-15.8 28.5-4.58 8.25-9.31 16.57-10.53 18.5-1.21 1.93-3.68 6.2-5.48 9.5-1.81 3.3-4.31 8.02-5.56 10.5-1.26 2.48-3.33 5.49-4.61 6.7-1.28 1.2-5.47 3.62-9.32 5.36-3.85 1.74-11.5 5.31-17 7.93-5.5 2.62-16.53 7.92-24.5 11.77-7.98 3.85-18.78 9.02-24 11.5-5.23 2.47-14.9 7.08-21.5 10.24-6.6 3.15-17.96 8.61-25.25 12.12-7.29 3.51-13.59 6.36-14 6.34-0.41-0.03-1.43 0.7-2.25 1.62-1.4 1.57-1.26 1.57 2.25 0.05 2.06-0.9 5.44-2.36 7.5-3.25 2.06-0.89 8.92-4.09 15.25-7.11 6.32-3.02 20.5-9.67 31.5-14.77 11-5.11 25.62-11.98 32.5-15.26 6.87-3.29 20.82-10.03 31-14.99 10.17-4.96 19.21-9.85 20.09-10.88 0.87-1.03 4.51-7.05 8.08-13.37 3.57-6.32 8.45-15.1 10.83-19.5 2.38-4.4 8.68-15.65 13.99-25 5.31-9.35 10.33-18.35 11.15-20 0.83-1.65 5.35-9.98 10.06-18.5 4.7-8.52 12.14-21.8 16.52-29.5 4.39-7.7 10.82-19.18 14.29-25.5 3.47-6.32 7.31-13.3 8.52-15.5 1.21-2.2 3.68-6.7 5.49-10 1.81-3.3 5.93-10.72 9.16-16.5 3.23-5.78 5.86-10.61 5.85-10.75-0.02-0.14-0.42-0.25-0.89-0.25-0.47 0-2.9 3.71-5.39 8.25zm-256.75 266.31c-3.03 1.34-5.28 2.68-5 2.97 0.27 0.29 3.09-0.61 6.25-2 3.16-1.39 5.75-2.76 5.75-3.03 0-0.27-0.34-0.47-0.75-0.44-0.41 0.03-3.23 1.16-6.25 2.5z"/>
		<path id="Path 40" fill-rule="evenodd" class="s15" d="m402.5 38.76l1.86 2.37c1.03 1.3 3.19 4.85 4.81 7.87 1.62 3.03 4.64 8.42 6.73 12 2.08 3.58 7.39 12.8 11.8 20.5 4.4 7.7 9.28 16.25 10.84 19 1.55 2.75 5.83 10.4 9.5 17 3.68 6.6 8.85 15.82 11.49 20.5 2.65 4.68 5.75 10.14 6.89 12.15 1.15 2.01 6.53 11.46 11.97 21 5.44 9.54 10.89 18.92 12.11 20.85 1.22 1.93 4.16 7.1 6.52 11.5 2.37 4.4 5.18 9.57 6.25 11.5 1.07 1.93 2.29 3.95 2.72 4.5 0.43 0.55 3.38 5.95 6.57 12 3.18 6.05 6.82 12.57 8.09 14.5 1.26 1.93 2.08 3.72 1.82 4-0.26 0.28-0.64 0.28-0.84 0-0.21-0.28-2.91-4.21-6-8.75-3.1-4.54-5.63-8.81-5.62-9.5 0-0.69-3.58-6.65-7.97-13.25-4.39-6.6-10.47-15.26-13.51-19.25-3.04-3.99-5.53-7.7-5.53-8.25 0-0.55-0.45-1-1-1-0.55 0-1-0.45-1-1 0-0.55-1.13-3.47-2.5-6.5-1.38-3.03-4.52-7.53-7-10-2.48-2.47-4.79-5.74-5.14-7.25-0.35-1.51-1.18-3.88-1.86-5.25-0.68-1.38-2.19-4.53-3.37-7-1.17-2.47-3.63-6.53-5.46-9-1.82-2.47-4.57-5.85-6.1-7.5-1.52-1.65-3.48-4.35-4.34-6-0.87-1.65-4.31-6.37-7.65-10.48-3.34-4.12-6.98-8.22-8.08-9.12-1.1-0.89-2.9-3.38-3.99-5.51-1.09-2.14-2.73-4.79-3.63-5.89-0.9-1.1-2.2-3.8-2.89-6-0.69-2.2-2.87-6.7-4.84-10-1.97-3.3-4.61-7.24-5.87-8.75-1.75-2.11-2.14-3.51-1.69-6 0.38-2.1 0.12-3.7-0.75-4.52-0.74-0.69-2.91-1.37-8.34-1.73l-0.5 5.14c-0.28 2.87-1.26 5.96-2.22 7-0.95 1.02-1.73 2.31-1.73 2.86 0 0.55-1.13 2.12-2.52 3.5-1.39 1.37-2.79 3.62-3.12 5-0.33 1.37-1.45 3.74-2.5 5.25-1.05 1.51-1.92 3.31-1.94 4-0.02 0.69-1.03 2.83-2.24 4.75-1.22 1.92-4.69 6.03-7.72 9.12-3.03 3.09-6.42 6.91-7.52 8.5-1.11 1.58-2.69 4.13-3.5 5.66-0.82 1.53-1.72 2.74-1.99 2.71-0.27-0.04-1.17 1.41-1.98 3.22-0.81 1.81-3.18 5.09-5.25 7.29-2.08 2.2-3.77 4.68-3.76 5.5 0 0.82-1.58 3.97-3.51 7-1.93 3.03-3.51 5.95-3.5 6.5 0 0.55-2.02 3.7-4.5 7-2.48 3.3-5.51 8.03-6.72 10.5-1.22 2.47-2.23 5.4-2.24 6.5-0.02 1.1-1.23 3.57-2.68 5.5-1.45 1.93-4.96 8-7.79 13.5-2.84 5.5-6.2 11.13-7.48 12.5-1.27 1.37-4.1 5.2-6.28 8.5-2.18 3.3-4.29 6.9-4.69 8-0.4 1.1-2.39 4.61-4.43 7.8-2.03 3.19-6.04 9.04-8.9 13-2.87 3.96-7.37 10.02-10 13.47-2.64 3.45-4.9 6.03-5.04 5.75-0.14-0.29 1.12-3.11 2.79-6.27 1.67-3.16 4.29-8 5.81-10.75 1.52-2.75 6.28-11.07 10.58-18.5 4.29-7.43 11.2-19.35 15.35-26.5 4.14-7.15 10.77-18.63 14.73-25.5 3.95-6.88 9.8-17 12.99-22.5 3.19-5.5 8.81-15.18 12.51-21.5 3.69-6.32 10.93-18.89 16.1-27.91 5.16-9.03 10.63-18.48 12.15-21 1.52-2.53 3.94-6.84 5.38-9.59 1.44-2.75 3.39-6.13 4.34-7.5 0.94-1.38 3.08-4.97 4.74-8 1.66-3.02 4.57-8.2 6.46-11.5 1.89-3.3 4.31-7.29 5.38-8.87zm0.06 39.24c0.79 0 1.66 0.9 1.94 2 0.27 1.1 0.09 2.56-0.42 3.25-0.5 0.69-1.07 2.82-1.25 4.75-0.3 3.14-0.61 3.47-3.08 3.25-2.33-0.21-2.75 0.13-2.75 2.25 0 1.37 0.26 2.5 0.57 2.5 0.31 0 1.33-0.72 2.25-1.6 1.54-1.48 1.8-1.44 3.18 0.43 1.03 1.39 3.07 2.2 6.5 2.57 2.75 0.29 5.32 0.89 5.72 1.32 0.39 0.43 1.04 2.35 1.44 4.28 0.64 3.06 0.52 3.4-0.96 2.75-1.2-0.53-2.59 0.14-4.7 2.25-1.67 1.66-3.67 2.78-4.5 2.5-0.83-0.28-2.06-0.11-2.75 0.36-0.69 0.47-2.6 1.2-4.25 1.62-1.65 0.41-5.25 0.92-8 1.11-2.89 0.21-5.78-0.16-6.84-0.87-1.69-1.13-1.72-1.5-0.37-4.72 0.81-1.93 3.55-6.65 6.09-10.5 2.54-3.85 5.21-7.68 5.94-8.5 0.72-0.83 2.1-3.64 3.06-6.25 0.98-2.65 2.38-4.75 3.18-4.75zm157.69 236.65c0.52 0.26 0.91 1.34 0.85 2.41-0.06 1.17-1.38 2.5-3.35 3.36-2.81 1.24-3.28 1.24-3.5 0-0.14-0.78 0.94-2.51 2.4-3.83 1.46-1.33 3.08-2.2 3.6-1.94zm-88.84 29.63c0.6 0.27 3.03 1.33 5.4 2.36 2.67 1.15 4.09 2.33 3.75 3.11-0.31 0.69-0.22 1.08 0.19 0.87 0.41-0.2 1.65-0.06 2.75 0.32 1.69 0.59 1.26 1.04-2.75 2.88-2.61 1.2-4.92 2.07-5.13 1.93-0.21-0.14-1.56-2.61-3-5.5-1.44-2.89-2.55-5.53-2.46-5.86 0.08-0.33 0.64-0.38 1.25-0.11z"/>
	</g>
</svg>