<svg version="1.2" xmlns="http://www.w3.org/2000/svg" viewBox="0 0 400 400" width="400" height="400">
	<style>
		.s0 { fill: #ffffff } 
		.s1 { fill: #ec2626 } 
		.s2 { fill: #ec2929 } 
	</style>
	<g id="APEX copy">
		<path id="Path 0" class="s0" d="m314.5 242.49c-1.65 0.76-9.07 4.06-16.5 7.35-7.43 3.29-16.2 7.1-19.5 8.46-3.3 1.37-19.5 8.53-36 15.93-16.5 7.39-31.57 14.16-33.5 15.04-1.93 0.88-10.59 4.78-19.25 8.67-8.66 3.88-15.97 7.06-16.25 7.06-0.28 0-3.76 1.52-7.75 3.38-3.99 1.86-13.55 6.19-21.25 9.63-7.7 3.43-20.97 9.29-29.5 13.01-8.53 3.72-21.13 9.25-28 12.28-6.88 3.03-18.35 8.07-25.5 11.2-7.15 3.14-14.91 6.56-17.25 7.6-2.94 1.32-4.17 2.44-3.99 3.65 0.24 1.59 2.12 1.77 20.75 2 11.27 0.14 33.77-0.13 49.99-0.59l29.5-0.84c20.93-8.93 34.43-14.6 43.5-18.36 9.07-3.77 22.57-9.38 30-12.47 7.43-3.1 16.88-6.99 21-8.64 4.12-1.66 12.68-5.19 19-7.86 6.32-2.66 16.68-6.93 23-9.5 6.32-2.56 12.58-4.5 13.89-4.32 1.89 0.26 4.1 3.21 10.5 14.02 4.46 7.53 9 15.18 10.1 17 1.09 1.82 2.9 4.88 4.02 6.81 1.12 1.93 3.35 5.75 4.94 8.5 1.6 2.75 4.4 7.36 6.23 10.25l3.32 5.25c50.12 0 64.95-0.34 65.3-0.75 0.35-0.41-0.32-2.55-1.48-4.75-1.17-2.2-9.55-16.38-18.64-31.5-9.09-15.13-18.63-30.88-21.19-35-2.57-4.13-4.86-7.97-5.08-8.54-0.23-0.57-6.37-11.04-13.66-23.25-11.12-18.64-13.61-22.2-15.5-22.15-1.24 0.04-3.6 0.68-5.25 1.43z"/>
		<path id="Path 1" fill-rule="evenodd" class="s1" d="m198.26 21.99c0.68-0.01 3.01 3.25 5.17 7.25 2.16 3.99 4.89 8.84 6.08 10.76 1.18 1.92 3.62 6.2 5.42 9.5 1.79 3.3 8.23 14.78 14.31 25.5 6.08 10.72 13.62 24 16.77 29.5 3.14 5.5 8.31 14.5 11.49 20 3.17 5.5 6.76 11.8 7.96 14 1.2 2.2 7.02 12.55 12.95 23 5.92 10.45 13.43 23.61 16.68 29.25 3.49 6.06 5.61 10.76 5.17 11.5-0.43 0.73-0.33 0.98 0.25 0.59 0.54-0.36 2.68 2.12 4.74 5.5 2.06 3.39 4.01 7.06 4.34 8.16 0.49 1.66-0.4 2.48-5.25 4.81-3.21 1.54-6.4 2.55-7.09 2.25-0.69-0.31-1.04-0.22-0.79 0.19 0.26 0.41-1.2 1.59-3.25 2.62-2.4 1.21-4.24 1.56-5.2 1-0.95-0.55-1.25-0.5-0.83 0.13 0.38 0.57-4.52 3.3-11.51 6.4-6.69 2.97-15.54 6.9-19.67 8.72-4.12 1.83-8.51 3.34-9.75 3.35-1.63 0.02-3.05-1.29-5.14-4.72-1.59-2.61-5.93-10.38-9.65-17.25-3.72-6.87-7.82-14.19-9.11-16.25-1.29-2.06-2.35-3.97-2.35-4.25 0-0.28-2.39-4.66-5.32-9.75-2.93-5.09-7.43-13.19-10-18-2.57-4.81-5.13-8.75-5.68-8.75-0.55 0-2.65 3.04-4.67 6.75-2.01 3.71-7.02 12.82-11.13 20.25-4.1 7.43-9.14 16.43-11.19 20-2.05 3.57-6.36 11.22-9.57 17-3.22 5.78-6.82 12.3-8 14.5-1.18 2.2-6.19 11.2-11.13 20-4.94 8.8-10.23 18.25-11.76 21-1.53 2.75-3.96 7.01-5.41 9.46-2.52 4.27-3.6 4.92-24.14 14.79-11.82 5.68-22.4 10.73-23.5 11.23-1.1 0.49-15.5 7.26-32 15.04-16.5 7.78-31.69 15.01-33.75 16.06-2.06 1.06-4.42 1.92-5.25 1.92-0.82 0-1.7-0.34-1.94-0.75-0.24-0.41 2.5-5.93 6.09-12.25 3.59-6.32 10.92-18.93 16.28-28 5.35-9.07 12.58-21.45 16.05-27.5 3.48-6.05 8.58-14.82 11.35-19.5 2.76-4.68 6.01-10.3 7.2-12.5 1.2-2.2 7.04-12.32 12.97-22.5 5.93-10.18 13.05-22.32 15.82-27 2.77-4.68 6.13-10.53 7.46-13 1.34-2.47 4.8-8.55 7.7-13.5 2.9-4.95 7.73-13.28 10.74-18.5 3.01-5.22 8.31-14.45 11.77-20.5 3.47-6.05 9.01-15.72 12.32-21.5 3.31-5.78 7.36-12.75 9-15.5 1.65-2.75 3.76-6.35 4.7-8 0.94-1.65 7.01-12.22 13.5-23.5 6.49-11.28 14.47-25.22 17.74-31 3.26-5.78 7.02-12.19 8.35-14.25 1.33-2.06 2.98-3.76 3.66-3.76zm-105.58 190.61c-4.22 7.37-7.57 13.63-7.43 13.91 0.14 0.29 2.19-2.3 4.56-5.75 2.36-3.44 5.85-9.52 7.75-13.51 1.89-3.99 3.3-7.43 3.12-7.65-0.17-0.22-3.77 5.63-8 13z"/>
		<path id="Path 2" class="s2" d="m188.16 43.75c-4.92 8.66-17.15 29.92-27.17 47.25-10.03 17.33-23.43 40.5-29.79 51.5-6.35 11-14.69 25.4-18.52 32-3.83 6.6-9.54 16.5-12.68 22-3.15 5.5-9.89 17.2-14.98 26-5.09 8.8-12.29 21.18-15.99 27.5-3.7 6.32-11.14 19.15-16.53 28.5-5.39 9.35-13.27 22.85-17.52 30-4.26 7.15-8.46 14.46-9.36 16.25-0.89 1.79-1.62 3.59-1.62 4-0.01 0.41 3.3-4.65 7.33-11.25 4.04-6.6 12.43-20.77 18.64-31.5 6.21-10.73 17.71-30.53 25.56-44 7.84-13.47 16.78-28.78 19.86-34 3.07-5.22 5.59-9.05 5.59-8.5 0.01 0.55-1.93 4.82-4.31 9.5-2.37 4.68-5.92 10.75-7.89 13.5-1.97 2.75-6.86 11.3-10.86 19-4.01 7.7-9.37 17.15-11.92 21-2.56 3.85-9.4 15.1-15.2 25-7.53 12.84-11.3 20.44-13.17 26.5-1.44 4.68-3.53 9.4-4.65 10.5-1.13 1.1-2.04 2.23-2.04 2.5 0 0.27 1.03 1.01 2.28 1.64 1.77 0.89 3.06 0.82 5.78-0.32 1.93-0.81 8.9-3.29 15.5-5.53 6.6-2.23 19.43-7.4 28.5-11.49 9.08-4.09 20.33-9.53 25-12.08 4.68-2.56 9.85-5.84 11.5-7.3 1.65-1.46 5.66-7.77 8.91-14.03 3.24-6.27 8.68-16.34 12.09-22.39 3.4-6.05 9.48-17.3 13.5-25 4.03-7.7 8.45-15.8 9.82-18 1.37-2.2 4.96-8.95 7.97-15 3.02-6.05 7.63-14.82 10.25-19.5 2.62-4.68 5.48-10.86 6.36-13.75 0.88-2.89 2.05-5.47 2.6-5.75 0.55-0.28 3.14-0.09 5.75 0.41 3.06 0.59 5.46 0.55 6.75-0.1 1.48-0.74 2.19-0.66 2.73 0.34 0.41 0.74 1.45 3.82 2.32 6.85 0.87 3.03 4.43 10.68 7.91 17 3.48 6.32 7.78 14.43 9.54 18 1.77 3.57 2.78 6.05 2.25 5.5-0.53-0.55-5.6-9.1-11.25-19-5.66-9.9-11.35-19.69-12.65-21.75-1.29-2.06-2.57-3.75-2.85-3.75-0.28 0 1.03 2.81 2.89 6.25 1.87 3.44 11.6 21.1 21.63 39.25 10.03 18.15 18.74 33.6 19.36 34.33 0.83 0.99 1.63 1.07 3.12 0.28 1.1-0.58 6.95-3.14 13-5.69 6.05-2.55 15.73-6.54 21.5-8.88 5.77-2.33 13.31-5.66 16.75-7.39l6.25-3.15c-6.64-12.79-13.34-24.6-19.15-34.5-5.82-9.9-21.38-36.9-34.57-60-13.19-23.1-28.71-50.33-34.49-60.5-5.78-10.17-12.37-21.99-14.65-26.25-2.28-4.26-4.57-7.75-5.09-7.75-0.52 0-4.97 7.09-9.89 15.75zm6.02 120.5c-1.08 1.79-5.23 9.1-9.23 16.25-3.99 7.15-18.06 32.35-31.27 56-13.2 23.65-26.07 46.8-28.59 51.44l-4.59 8.44c-31.77 15.38-50 24.12-61 29.35-11 5.23-22.36 10.58-25.25 11.89-2.89 1.31-5.14 2.61-5 2.88 0.14 0.28 3.63-1.01 7.75-2.86 4.13-1.86 11.55-5.28 16.5-7.62 4.95-2.33 15.75-7.4 24-11.25 8.25-3.85 21.53-10.27 29.5-14.27l14.5-7.28c9.47-16.83 16.72-29.82 22.22-39.72 5.5-9.9 13.51-24.3 17.8-32 4.29-7.7 13.06-23.45 19.49-35 6.43-11.55 12.62-22.91 13.76-25.25 1.13-2.34 1.91-4.25 1.71-4.25-0.19 0-1.23 1.46-2.3 3.25z"/>
		<path id="Path 3" fill-rule="evenodd" class="s1" d="m197.83 30.96c0.37-0.03 8.05 12.91 17.08 28.75 9.02 15.83 21.81 38.24 28.42 49.79 6.61 11.55 16.89 29.78 22.85 40.5 5.96 10.72 10.72 19.61 10.58 19.74-0.15 0.14-1.65-1.89-3.34-4.5-1.7-2.61-4.37-6.99-5.94-9.74-1.56-2.75-6.14-9.61-10.16-15.25-4.03-5.64-7.92-11.71-8.65-13.5-0.73-1.79-2.68-4.83-4.32-6.75-1.64-1.92-4.56-6.87-6.49-11-1.93-4.12-4.85-9.08-6.5-11-1.64-1.92-4.04-5.08-5.34-7-1.29-1.92-4.63-6.2-7.42-9.5-2.79-3.3-7.05-9.83-9.47-14.5-2.41-4.67-5.23-9.74-6.26-11.25-1.03-1.51-1.87-3.87-1.87-5.25 0-1.6-0.81-2.89-2.25-3.59-1.24-0.59-2.81-0.82-3.5-0.5-0.69 0.33-1.25 1.83-1.25 3.34 0.01 1.51-1.22 4.55-2.72 6.75-1.5 2.2-3.98 6.59-5.5 9.75-1.53 3.16-4.73 7.89-7.11 10.5-2.38 2.61-7.05 8.8-10.37 13.75-3.32 4.95-7.39 11.47-9.03 14.5-1.65 3.03-4.63 7.86-6.63 10.75-2 2.89-3.64 5.92-3.64 6.75 0 0.83-2.4 5.66-5.33 10.75-2.93 5.09-6.92 11.5-8.88 14.25-1.95 2.75-4.34 6.57-5.31 8.5-0.97 1.93-5.18 8.33-9.37 14.24-4.19 5.91-7.95 10.74-8.36 10.75-0.41 0.01 0.33-1.9 1.64-4.24 1.31-2.34 5.97-10.55 10.35-18.25 4.38-7.7 10.44-18.28 13.47-23.5 3.03-5.22 9.7-16.7 14.81-25.5 5.11-8.8 13.31-22.97 18.23-31.5 4.92-8.53 12.99-22.59 17.93-31.25 4.94-8.66 9.28-15.77 9.65-15.79zm0.15 26.04c0.56 0 1.03 0.34 1.03 0.75 0.01 0.41-0.33 2.2-0.75 3.98-0.42 1.77-1.55 3.46-2.51 3.75-0.96 0.28-1.75 0.97-1.75 1.52 0 0.55 0.67 0.78 1.5 0.5 0.82-0.28 2.06-0.16 2.75 0.25 0.69 0.41 2.82 1.21 4.75 1.78 2.27 0.66 3.6 1.72 3.79 3 0.2 1.37-0.71 2.47-3 3.63-1.81 0.92-4.87 2.16-6.79 2.77-1.93 0.61-5.19 1.1-7.25 1.09-2.06-0.01-3.98-0.47-4.25-1.02-0.28-0.55 0.7-3.14 2.17-5.75 1.46-2.61 3.68-6.1 4.93-7.75 1.24-1.65 2.73-4.24 3.31-5.75 0.58-1.51 1.51-2.75 2.07-2.75zm47.87 177.15c1.65 0.58 3.04 1.45 3.08 1.95 0.04 0.49 0.74 0.9 1.57 0.9 0.82 0 1.5 0.45 1.5 1 0 0.55-0.68 1.22-1.5 1.5-0.83 0.28-2.18 0.5-3 0.5-0.83 0-2.18-1.35-3-3-0.83-1.65-1.53-3.2-1.57-3.45-0.04-0.24 1.27 0.02 2.92 0.6z"/>
		<path id="Path 4" class="s2" d="m208.02 46.75c0.02 0.41 5.26 9.97 11.67 21.25 6.4 11.28 17.02 29.95 23.6 41.5 6.58 11.55 12.64 21.9 13.46 23l1.5 2c-1.07-3.1-8.7-16.82-17.65-32.5-8.96-15.68-19.69-34.69-23.86-42.25-4.17-7.56-7.84-13.75-8.16-13.75-0.32 0-0.57 0.34-0.56 0.75z"/>
	</g>
</svg>